<?xml version="1.0" encoding="UTF-8" standalone="no"?>
<!-- Created with Inkscape (http://www.inkscape.org/) -->

<svg
   xmlns:dc="http://purl.org/dc/elements/1.1/"
   xmlns:cc="http://creativecommons.org/ns#"
   xmlns:rdf="http://www.w3.org/1999/02/22-rdf-syntax-ns#"
   xmlns:svg="http://www.w3.org/2000/svg"
   xmlns="http://www.w3.org/2000/svg"
   xmlns:sodipodi="http://sodipodi.sourceforge.net/DTD/sodipodi-0.dtd"
   xmlns:inkscape="http://www.inkscape.org/namespaces/inkscape"
   width="744.09448819"
   height="1052.3622047"
   id="svg4412"
   version="1.1"
   inkscape:version="0.48.3.1 r9886"
   sodipodi:docname="New document 10">
  <defs
     id="defs4414" />
  <sodipodi:namedview
     id="base"
     pagecolor="#ffffff"
     bordercolor="#666666"
     borderopacity="1.0"
     inkscape:pageopacity="0.0"
     inkscape:pageshadow="2"
     inkscape:zoom="0.35"
     inkscape:cx="375"
     inkscape:cy="520"
     inkscape:document-units="px"
     inkscape:current-layer="layer1"
     showgrid="false"
     inkscape:window-width="1006"
     inkscape:window-height="735"
     inkscape:window-x="0"
     inkscape:window-y="0"
     inkscape:window-maximized="0" />
  <metadata
     id="metadata4417">
    <rdf:RDF>
      <cc:Work
         rdf:about="">
        <dc:format>image/svg+xml</dc:format>
        <dc:type
           rdf:resource="http://purl.org/dc/dcmitype/StillImage" />
        <dc:title></dc:title>
      </cc:Work>
    </rdf:RDF>
  </metadata>
  <g
     inkscape:label="Layer 1"
     inkscape:groupmode="layer"
     id="layer1">
    <path
       style="fill:#a05a2c;fill-opacity:1;fill-rule:nonzero;stroke:#000000;stroke-width:6.28869867;stroke-linecap:round;stroke-linejoin:round;stroke-miterlimit:4;stroke-opacity:1;stroke-dasharray:none"
       d="m 570.37551,1025.0996 c 1.3562,-6.4788 -0.43501,-16.2724 -5.23997,-28.65101 -6.83918,-17.61922 -7.05406,-20.56696 -2.91101,-39.94251 1.90878,-8.92487 3.83505,-16.59153 4.2814,-17.0377 0.44651,-0.44618 1.2487,-5.55583 1.7833,-11.35483 0.85792,-9.30774 0.4563,-12.58641 -3.42768,-27.98216 -7.82596,-31.02158 9.67372,-54.90911 13.46625,-73.57916 l -18.30455,-8.1565 -4.56371,-0.53742 c -97.97236,-13.17272 -18.99957,57.39627 -9.54269,86.68902 2.7815,8.74543 6.24648,38.65549 6.53559,50.58398 3.99115,35.71954 -16.11065,79.30879 -4.47663,72.86799 0,0 4.10974,-4.4334 9.61873,-2.9093 l 12.09162,3.297 0.692,-3.3058 z"
       id="path3775"
       inkscape:connector-curvature="0"
       sodipodi:nodetypes="cscccscccccscccc" />
    <path
       style="fill:#a05a2c;fill-opacity:1;fill-rule:nonzero;stroke:#000000;stroke-width:3.98749709;stroke-linecap:round;stroke-linejoin:round;stroke-miterlimit:4;stroke-opacity:1;stroke-dasharray:none"
       d="m 433.12746,1014.5742 c -0.22095,-4.4823 -0.45454,-12.2991 -0.51973,-17.37077 -0.12637,-9.83163 -1.19627,-18.85123 -2.85137,-24.03423 -0.55833,-1.74891 -1.0152,-3.48734 -1.0152,-3.86367 0,-0.83735 -1.51747,-5.8885 -4.19147,-13.95157 -1.1074,-3.33891 -2.01343,-6.44163 -2.01343,-6.89436 0,-0.45273 -0.3461,-1.70395 -0.76929,-2.78097 -0.42315,-1.07703 -1.46052,-4.99178 -2.30523,-8.70003 -1.34581,-5.90727 -2.48126,-9.8098 -4.20615,-14.45668 -0.26172,-0.70463 -0.47545,-1.76856 -0.47545,-2.36448 0,-0.59593 -0.7238,-3.33891 -1.60842,-6.09587 -0.88462,-2.75696 -2.02656,-6.34036 -2.53768,-7.96353 -2.73907,-8.69741 -3.43384,-10.61965 -4.97911,-13.77825 -0.92853,-1.89779 -2.01527,-4.55346 -2.41498,-5.9016 -0.39991,-1.34814 -2.3877,-5.18299 -4.41772,-8.52234 -2.03002,-3.33979 -3.69099,-6.31154 -3.69099,-6.60448 0,-0.2925 -0.66346,-1.54416 -1.47442,-2.78054 -1.83769,-2.80192 -4.2134,-11.9621 -4.2134,-16.24575 0,-1.96065 0.50488,-4.65125 1.29268,-6.88869 0.711,-2.01959 1.29269,-4.14177 1.29269,-4.7163 0,-1.52408 -4.03896,-2.7849 -13.89927,-4.33823 -4.72644,-0.74479 -11.26943,-2.01784 -14.53992,-2.82899 -3.27049,-0.81116 -8.46154,-2.00169 -11.53562,-2.6452 -3.07407,-0.64394 -6.17229,-1.48697 -6.88487,-1.87377 -0.71267,-0.38419 -2.43581,-0.70245 -3.82923,-0.70245 -2.86495,0 -3.95328,1.60266 -3.3638,4.9538 0.32205,1.83055 13.76674,21.60295 14.68935,21.60295 0.48989,0 7.28063,11.95511 8.44666,14.87011 0.70293,1.75765 4.44504,8.73452 7.10777,13.25218 0.86607,1.46951 1.57466,2.99358 1.57466,3.38694 0,1.13378 1.80063,3.99289 10.04163,15.94714 4.24308,6.15481 8.78045,13.0806 10.08296,15.39095 6.29777,11.16929 8.83166,15.94016 8.83166,16.62863 0,0.41475 0.38524,1.208 0.85572,1.76463 0.47068,0.55707 1.17218,2.00824 1.55893,3.22584 0.38686,1.21717 0.91597,2.71068 1.17601,3.31927 1.96663,4.60322 4.31418,14.1454 5.17214,21.02448 0.94222,7.55447 2.51611,14.81118 4.55975,21.02406 1.08543,3.30005 8.0008,25.01997 8.0008,29.88697 0,2.8778 -6.40665,-40.11545 -13.14542,-29.26267 -1.17353,1.88992 -5.43422,13.44776 -10.74089,17.67377 -3.4108,2.7168 2.90107,6.3168 1.74148,12.8815 37.76858,-0.9333 7.6885,1.3093 35.19817,-1.2678 z"
       id="path3799"
       inkscape:connector-curvature="0"
       sodipodi:nodetypes="cscscssccssccccscscscsccscsccsscscccscssscc" />
    <path
       style="fill:#c8914b;fill-opacity:1;fill-rule:nonzero;stroke:#000000;stroke-width:8.30076408;stroke-linecap:round;stroke-linejoin:round;stroke-miterlimit:4;stroke-opacity:1;stroke-dasharray:none"
       d="m 650.83911,1019.8559 c 0,-10.0739 -3.02031,-17.9366 -12.0127,-31.27305 -6.49479,-9.63211 -8.34524,-19.12234 -6.9826,-35.81253 1.87911,-23.0157 0.53995,-38.0002 -4.0037,-44.79895 -2.09733,-3.13852 -5.91253,-11.80101 -8.47826,-19.25069 -2.56572,-7.44925 -5.60348,-15.94627 -6.75063,-18.88179 -6.26581,-16.03489 -9.84257,-54.57339 -5.61693,-60.52082 3.50799,-4.93765 3.72233,-22.13513 0.44386,-35.61084 -5.66239,-23.27502 -6.11184,-26.03023 -4.53909,-27.82499 2.99789,-3.42142 11.08181,1.16085 15.60365,8.84541 4.91368,8.35034 6.38786,13.87168 9.16537,34.32775 1.08245,7.9727 2.80257,16.79802 3.82241,19.61174 1.01989,2.81371 2.38563,9.33699 3.03503,14.49553 2.47881,19.69164 4.28054,29.14825 6.73649,35.35632 3.51598,8.88775 13.04453,25.87307 14.56465,25.963 0.68861,0.0437 0.78984,-3.18786 0.22462,-7.17377 -0.71247,-5.02758 -2.69797,-9.2309 -6.48175,-13.72062 l -5.45468,-6.47263 -0.91707,-23.37107 c -0.88621,-22.5848 -2.95484,-34.21031 -7.95201,-44.6885 -1.11833,-2.34484 -5.54164,-16.15845 -9.82969,-30.69633 -4.288,-14.53832 -8.72704,-27.64469 -9.86454,-29.12554 -1.13745,-1.48086 -2.06809,-3.5441 -2.06809,-4.58446 0,-1.04079 -1.84906,-4.11383 -4.10909,-6.82931 -9.13214,-10.97239 -19.98733,-16.77052 -35.80492,-19.1254 -5.1438,-0.76575 -13.52426,-3.74055 -18.79574,-6.67127 -5.23219,-2.90932 -9.96426,-5.28952 -10.51566,-5.28952 -0.5514,0 -2.29916,-1.3429 -3.88393,-2.98441 -1.5847,-1.64152 -3.76999,-3.90384 -4.85616,-5.02758 -1.08621,-1.12418 -4.64989,-5.1568 -7.9194,-8.96197 -3.26942,-3.80517 -7.13571,-7.35015 -8.5917,-7.87753 -1.45596,-0.52738 -2.64722,-1.95323 -2.64722,-3.16865 0,-3.1049 -13.00751,-16.63605 -23.39414,-24.33589 -8.33566,-6.1797 -9.38261,-6.49927 -23.09749,-7.05502 -12.17585,-0.4929 -15.27952,-0.048 -20.35745,2.9067 -6.14722,3.57946 -13.83844,12.55453 -13.83844,16.14884 0,1.10933 -1.40052,3.01541 -3.11224,4.2352 -1.71176,1.22022 -4.56941,5.6964 -6.35039,9.94688 -6.25089,14.91814 -5.07512,13.5473 -17.43319,20.32641 -4.41169,2.41992 -7.45022,2.64912 -19.42476,1.46383 -26.23155,-2.59587 -32.53609,-2.02003 -43.44004,3.96626 -9.84554,5.40565 -17.82274,12.79509 -17.82274,16.50989 0,3.42186 -14.5642,20.81537 -23.53752,28.11007 -11.80177,9.59413 -27.48728,25.1763 -39.88693,27.37183 -24.89821,4.40895 -22.06151,-10.00146 -43.88135,-33.975 -9.1926,-10.10012 -16.71383,-18.86127 -16.71383,-19.46985 0,-2.74867 -9.50042,-15.6625 -14.78703,-20.09983 -4.62624,-3.88288 -8.4434,-5.27817 -18.29905,-6.6883 -37.91962,1.02988 -50.64385,8.3141 -51.15204,17.46686 -0.83423,15.02466 31.24999,37.97313 38.838,67.94082 14.11153,0 3.2073,7.72429 15.14311,23.41691 19.27797,19.47596 5.72411,18.06539 22.06942,29.02163 2.68932,1.93751 12.57388,10.50613 14.21752,11.67135 8.10464,5.7453 24.54061,14.55404 32.42099,16.85783 8.22518,2.40508 9.21069,9.5627 28.46081,6.1177 32.95784,-5.8981 23.13785,0.18336 27.45068,4.73289 4.84561,5.11402 13.65182,13.1832 16.85501,29.25651 1.39154,6.98299 3.09315,13.48444 3.78124,14.44752 1.6608,2.32475 14.89493,21.47983 17.66583,40.51006 5.06224,41.32514 10.55308,45.57168 4.14411,54.0722 -1.47214,1.85631 -3.19035,8.68387 -6.21306,8.97247 -4.31344,0.4104 -5.11653,4.5303 -6.76975,8.4848 -1.45547,3.4816 0.23766,7.072 1.28698,8.9532 1.63431,2.9294 -6.69124,3.7947 23.54534,1.4962 l 17.91469,-1.3622 1.16338,-9.2636 c 0.73057,-5.8169 0.59755,-9.9093 -0.35752,-10.99946 -4.10812,-19.79815 -6.54291,-38.38089 -11.721,-63.35331 -1.46072,-7.04454 -4.44589,-22.44553 -6.15284,-28.93781 -1.99239,-7.65531 -2.46691,-8.99254 -8.92859,-25.1584 -2.53161,-6.3338 -4.60293,-12.61958 -4.60293,-13.9686 0,-1.34901 -0.67239,-2.92722 -1.49419,-3.50699 -0.8218,-0.57977 -1.49424,-5.14021 -1.49424,-10.13417 0,-8.40709 0.43673,-9.53083 5.88775,-15.15127 1.7692,-3.34022 -10.03376,-7.32613 -3.83555,-6.73283 31.26684,13.8804 72.31708,37.66666 104.94279,46.57493 7.67683,1.98553 22.34617,0.82381 23.81329,-1.88556 0.47236,-0.87227 2.41261,-1.58607 4.31157,-1.58607 4.49909,0 21.47717,-6.20851 25.78213,-9.4278 1.84601,-1.38044 4.68511,-2.50985 6.30914,-2.50985 1.62403,0 3.40282,-0.8308 3.95271,-1.84627 0.54993,-1.01591 3.79306,-3.21318 7.20688,-4.88307 3.41383,-1.67033 7.12026,-4.29283 8.23652,-5.82782 1.11625,-1.53499 2.64848,-2.79101 3.40493,-2.79101 0.75641,0 5.01474,-3.13634 9.46287,-6.96902 4.44818,-3.83311 8.6911,-6.54336 9.42884,-6.02296 0.7377,0.5204 2.54779,5.32401 4.02233,10.67465 3.13641,11.38015 8.2986,20.76124 10.88365,19.77764 0.99901,-0.37982 1.81637,0.23138 1.81637,1.35774 0,2.03094 7.52995,12.72741 8.96528,12.73527 0.89481,0 11.11602,10.39656 21.80215,22.16569 6.71872,7.39948 8.26815,10.43323 11.72078,22.94803 2.18823,7.93166 4.52779,15.22244 5.19917,16.2008 0.67133,0.97879 1.59394,3.69821 2.0502,6.04304 0.45629,2.34484 1.8281,8.86811 3.04839,14.49554 3.36286,15.50882 5.89659,41.25664 4.84642,49.24934 -0.51443,3.9152 -1.84959,9.1297 -2.96707,11.588 -1.9511,4.2924 -1.8531,4.5107 2.4696,5.4973 2.47572,0.565 10.46886,1.0273 17.76245,1.0273 l 13.26116,0 0,-9.6557 z"
       id="path3769"
       inkscape:connector-curvature="0"
       sodipodi:nodetypes="ccsccccscsscssccccssssssscsscssscccscscccsscssccscccccsssccccccccscscsscsccccsssccssccccscsscccsscsccc" />
    <path
       style="fill:#000000;fill-opacity:1;fill-rule:nonzero;stroke:#000000;stroke-width:1.81951368;stroke-linecap:round;stroke-linejoin:round;stroke-miterlimit:4;stroke-opacity:1;stroke-dasharray:none"
       d="m 141.87665,697.03146 c 0.0689,-0.1528 0.81997,-0.62299 1.67092,-1.04691 3.12968,-1.56467 4.31458,-2.30205 5.65863,-3.51965 0.26376,-0.23575 0.81716,-0.64089 1.23016,-0.89672 0.41344,-0.25758 1.22448,-1.43763 1.80181,-2.62861 l 1.04972,-2.16671 -2.39239,-6.02864 c -2.18452,-5.50518 -2.47693,-6.0998 -3.36384,-6.83848 -0.53411,-0.4453 -1.06786,-1.05258 -1.18596,-1.34988 -0.11781,-0.29251 -0.53428,-0.62823 -0.92527,-0.73388 -0.56628,-0.15717 -0.886,-0.58501 -1.57544,-2.12655 l -0.8648,-1.93358 -1.4174,0.11351 c -1.68065,0.13533 -7.13163,1.92354 -7.69889,2.52819 -0.72893,0.76968 -2.17759,1.76026 -2.98508,2.03967 -0.91096,0.3187 -1.65123,1.42192 -3.45524,5.16684 -0.69967,1.45161 -1.71189,3.06868 -2.24963,3.59126 -0.53827,0.5217 -1.10484,1.35948 -1.2606,1.85761 -0.15491,0.49901 -0.42116,0.95523 -0.59025,1.01329 -0.16918,0.0611 -0.66412,0.52083 -1.10081,1.02551 -0.43636,0.50468 -1.16374,1.0469 -1.61657,1.20363 -0.56396,0.19646 -0.94414,0.63347 -1.20826,1.38438 -0.36323,1.03773 -0.50057,1.13858 -2.47743,1.81876 l -2.09064,0.72471 -1.43476,-0.8225 c -2.50143,-1.43502 -3.2351,-3.94095 -2.26434,-7.73346 0.17978,-0.70245 0.13004,-0.75047 -0.83468,-0.80242 -0.94614,-0.0568 -1.04231,0 -1.24185,0.78801 -0.58577,2.29812 -0.51247,3.78553 0.28536,5.79377 0.82893,2.08551 0.93509,2.20076 3.84382,4.16272 1.21735,0.82076 1.32762,0.83255 3.24468,0.32306 2.1065,-0.55925 2.18069,-0.53698 3.96926,1.19796 0.33632,0.32307 1.04752,0.99757 1.58094,1.49308 0.53346,0.49551 1.06187,1.13291 1.17438,1.41625 0.1117,0.28377 0.91019,0.81857 1.773,1.19009 0.86281,0.37109 1.66084,0.90808 1.77356,1.19185 0.11333,0.28377 0.38198,0.50249 0.59869,0.48459 1.58836,-0.12224 3.03123,-0.0524 3.61088,0.1921 0.37546,0.1528 1.369,0.24011 2.20679,0.17899 0.83778,-0.0611 1.79366,-0.0655 2.12427,0 0.70097,0.10478 6.4563,-1.82793 6.64101,-2.23176 l 0,0 z m -6.78643,0 c -0.1598,-0.12224 -0.58662,-0.11788 -0.95111,0 -0.86692,0.29687 -2.8146,0.18336 -3.50407,-0.21392 -0.29922,-0.17027 -0.77154,-0.23575 -1.04932,-0.13534 -0.27761,0.096 -0.90732,0.0437 -1.40051,-0.14844 l -0.89551,-0.32306 2.30234,-0.8356 c 2.29117,-0.83167 3.95731,-1.82619 3.76421,-2.31297 -0.0546,-0.13533 0.0534,-0.30996 0.24215,-0.37545 0.51397,-0.17899 1.53834,-2.51291 1.33129,-3.03506 -0.0987,-0.24448 -0.37383,-0.54266 -0.61055,-0.65224 -0.3086,-0.14406 -0.39299,-0.39728 -0.29678,-0.89453 0.11129,-0.57846 0.003,-0.79151 -0.63807,-1.25777 -1.27401,-0.92685 -2.56976,-0.91593 -5.97934,0.0568 -2.84041,0.80635 -3.18769,0.96396 -3.48072,1.61401 -0.245,0.53874 -0.39502,0.63653 -0.59942,0.39292 -0.19731,-0.24011 -0.39095,-0.0873 -0.70199,0.54091 -0.44411,0.89847 -1.72151,1.72796 -1.914,1.24293 -0.21688,-0.54703 0.48923,-2.38675 0.98184,-2.55745 0.9863,-0.34052 3.87823,-3.15948 3.87342,-3.77374 -0.003,-0.26631 0.48357,-0.95565 1.07936,-1.53455 0.607,-0.59068 1.61808,-2.24399 2.30055,-3.76457 1.44543,-3.22104 2.14241,-4.2448 3.38361,-4.97169 1.96842,-1.15212 2.51232,-1.5136 2.96128,-1.96851 0.25682,-0.25758 1.82937,-0.9024 3.49612,-1.43196 3.36372,-1.06219 2.99838,-1.16958 4.01447,1.19446 0.27599,0.64569 0.75812,1.19228 1.2474,1.41755 0.43778,0.20083 0.87023,0.55402 0.96101,0.78322 0.0893,0.22701 0.60216,0.77972 1.13619,1.22415 0.87304,0.72689 1.17928,1.33329 3.02997,5.99677 l 2.0586,5.18779 -0.81667,1.61096 c -0.47072,0.92859 -1.09917,1.70918 -1.48384,1.84234 -0.3673,0.12224 -1.09839,0.67145 -1.62603,1.20756 -0.5273,0.53611 -1.40748,1.13116 -1.95603,1.32151 -0.54854,0.19209 -1.02742,0.49725 -1.06224,0.68847 -0.0326,0.19646 -0.73134,0.57715 -1.54604,0.86354 -0.81606,0.27941 -1.62603,0.709 -1.80202,0.94169 -0.42352,0.55925 -5.48885,2.31515 -5.85937,2.03181 z m -9.31489,-2.52732 c -1.15302,-0.24012 -2.38036,-1.13466 -2.71888,-1.98772 -0.18875,-0.47499 0.57398,-1.44812 1.88856,-2.41032 0.31227,-0.22702 0.51324,-0.55052 0.44765,-0.71511 -0.15736,-0.39728 4.31487,-1.64588 4.61071,-1.29007 0.11781,0.14407 0.90749,0.68411 1.75355,1.20363 1.27495,0.78277 1.50597,1.03817 1.34988,1.49483 -0.10273,0.30123 -0.36689,0.6112 -0.58491,0.6876 -0.2181,0.0786 -0.51545,0.46888 -0.66147,0.87271 -0.37668,1.04559 -4.45025,2.48104 -6.08407,2.1475 z"
       id="path3864"
       inkscape:connector-curvature="0" />
    <path
       style="fill:#000000;fill-opacity:1;fill-rule:nonzero;stroke:#000000;stroke-width:1.81951368;stroke-linecap:round;stroke-linejoin:round;stroke-miterlimit:4;stroke-opacity:1;stroke-dasharray:none"
       d="m 139.7596,751.17613 c 0.073,-0.1659 1.3416,-0.82338 2.8179,-1.46077 2.69964,-1.17089 5.42982,-2.48367 8.91897,-4.29326 1.03811,-0.53961 2.74836,-1.39136 3.80078,-1.89386 1.05233,-0.50293 2.04392,-1.08488 2.20372,-1.29269 0.1594,-0.20519 1.12763,-0.7186 2.15008,-1.13684 4.01573,-1.63453 6.02092,-2.61158 6.27534,-3.05121 0.15124,-0.26194 0.99265,-0.67145 1.94914,-0.95129 0.96045,-0.28377 1.71323,-0.64569 1.75225,-0.8535 0.0367,-0.19646 0.37504,-0.46888 0.7494,-0.59854 0.37463,-0.12661 0.70969,-0.39292 0.74577,-0.5789 0.0367,-0.19209 0.73908,-0.57627 1.56296,-0.86179 0.82388,-0.28378 1.57345,-0.67975 1.66431,-0.87883 0.0917,-0.19645 1.36342,-0.84564 2.82594,-1.44112 1.46223,-0.5968 3.56828,-1.5577 4.67997,-2.13572 1.11148,-0.57933 2.94012,-1.50181 4.06359,-2.05102 2.99898,-1.4647 3.84382,-2.00649 4.27696,-2.74124 0.68034,-1.15561 1.36309,-1.80218 2.21277,-2.09686 0.45442,-0.1528 0.91377,-0.5479 1.02286,-0.8618 0.10803,-0.3187 0.81377,-1.1639 1.56794,-1.88425 0.75425,-0.72078 1.32917,-1.41624 1.27801,-1.54503 -0.051,-0.12661 0.22421,-0.34489 0.61194,-0.48023 0.44581,-0.1528 0.74288,-0.53699 0.80818,-1.03643 0.0567,-0.43657 0.83097,-2.18461 1.7209,-3.88681 0.89012,-1.70219 1.5946,-3.37995 1.56541,-3.72833 -0.0285,-0.34926 0.18263,-1.10409 0.46974,-1.68081 0.2874,-0.57627 0.42364,-1.29618 0.3033,-1.60004 -0.12107,-0.30123 -0.12148,-1.41318 -0.002,-2.46402 0.128,-1.1233 0.0465,-2.3409 -0.19731,-2.95647 -0.22788,-0.57453 -0.34039,-1.20931 -0.24908,-1.41057 0.27191,-0.59767 -3.68067,-10.39873 -4.62999,-11.48143 -0.44398,-0.50687 -0.92983,-0.97793 -1.07973,-1.04691 -0.15042,-0.0699 -0.36118,-0.34926 -0.46913,-0.6208 -0.10803,-0.27068 -0.31104,-0.50337 -0.45079,-0.51385 -0.34977,-0.0437 -4.54601,-3.88681 -4.78323,-4.40109 -0.36649,-0.79457 -2.85573,-2.71156 -3.59698,-2.7705 -0.41007,-0.0437 -0.81018,-0.22701 -0.88939,-0.42347 -0.0807,-0.20083 -0.53342,-0.39728 -1.009,-0.44007 -0.88405,-0.0742 -2.27225,-1.27348 -2.68436,-2.31209 -0.12596,-0.3187 -0.52869,-0.73519 -0.8933,-0.9251 -0.65307,-0.33616 -3.76975,-3.00624 -6.30278,-5.39211 -1.19155,-1.122 -1.28698,-1.29488 -1.2059,-2.18462 0.0485,-0.53087 0.25479,-1.28614 0.45829,-1.67731 0.20383,-0.39291 0.31064,-0.86267 0.23849,-1.04428 -0.0726,-0.18773 0.0734,-0.74611 0.32408,-1.25253 0.46429,-0.93951 0.73501,-2.63297 0.51068,-3.19834 -0.0677,-0.17026 0.0648,-0.55401 0.29555,-0.84913 3.87101,-11.9442 4.46868,-37.73694 -13.27514,-35.34714 -5.87258,1.03991 -8.02306,8.5219 -7.66713,15.30276 0.0921,0.23575 -0.18753,1.1281 -1.4474,4.64164 -0.30737,0.85612 -0.60741,2.04448 -0.66778,2.63952 -0.0669,0.66447 -0.32532,1.15998 -0.66783,1.27829 -0.35915,0.12224 -0.60432,0.64744 -0.68683,1.46601 -0.12107,1.20538 -1.38192,4.08851 -1.84849,4.22909 -0.117,0.0436 -1.13553,-0.048 -2.2579,-0.18336 -1.12253,-0.13534 -2.25346,-0.17463 -2.51326,-0.0829 -0.25968,0.0873 -0.70925,0.0437 -0.99689,-0.13534 -0.42629,-0.24448 -1.38612,-10e-4 -5.14458,1.30186 -4.05629,1.4062 -4.78482,1.58083 -5.96642,1.42498 -0.74006,-0.096 -1.68441,-0.0611 -2.09839,0.0829 -0.41401,0.14407 -1.08686,0.0917 -1.49435,-0.12224 -0.40803,-0.21392 -0.97525,-0.30123 -1.26049,-0.20519 -0.28536,0.096 -1.07797,0.0829 -1.76088,-0.0437 -0.68312,-0.11351 -1.6043,-0.0917 -2.04682,0.0655 -0.44243,0.15717 -1.13851,0.10478 -1.54617,-0.10477 -0.67781,-0.35363 -1.10471,-0.26195 -4.94046,1.07047 -3.83571,1.32937 -4.22392,1.52015 -4.49163,2.20077 -0.16144,0.41038 -0.50607,0.81857 -0.76661,0.90894 -0.26008,0.0873 -0.90476,0.60422 -1.43227,1.14033 -0.52731,0.53611 -1.20916,1.06262 -1.51515,1.16871 -0.30574,0.10478 -1.13851,0.82861 -1.84987,1.60702 -0.71133,0.77667 -1.45551,1.46907 -1.65363,1.53762 -0.19812,0.0698 -1.13509,0.95609 -2.0822,1.972 -0.9472,1.0159 -2.2237,2.27454 -2.83694,2.79712 -0.61345,0.52171 -1.051561,1.10933 -0.974514,1.30361 0.07623,0.19209 -0.192007,0.99102 -0.597588,1.77117 -0.548994,1.0552 -0.651602,1.63541 -0.400729,2.26713 0.453236,1.14251 1.344583,0.83342 2.044741,-0.709 0.28658,-0.62953 0.73994,-1.22153 1.00781,-1.31495 0.27843,-0.096 0.48137,-0.57934 0.47403,-1.12855 -0.008,-0.61513 0.18711,-1.03074 0.54386,-1.15429 0.30615,-0.10478 1.3551,-1.04953 2.33063,-2.09512 0.97557,-1.04603 1.93585,-1.95803 2.13401,-2.02657 0.19812,-0.0699 0.90802,-0.71773 1.5774,-1.44288 0.66937,-0.72514 1.72847,-1.68822 2.3535,-2.14095 0.62563,-0.45185 1.30316,-0.95653 1.50675,-1.11937 0.20342,-0.16154 0.58735,-0.39729 0.85078,-0.52607 0.26376,-0.12661 0.66799,-0.60771 0.89677,-1.07048 0.37586,-0.76051 0.72669,-0.94911 3.63934,-1.95934 2.79063,-0.96789 3.35088,-1.07616 4.17467,-0.80373 0.52311,0.17026 1.25156,0.20955 1.61862,0.0829 0.3673,-0.12225 1.2266,-0.13534 1.90947,-0.0437 0.6832,0.11351 1.46362,0.13534 1.73423,0.0437 0.27027,-0.0917 1.15807,0.10477 1.97209,0.44268 1.25514,0.51821 1.80047,0.55576 2.90502,0.19646 0.0783,-0.0437 0.46412,-0.25758 0.85747,-0.5025 0.598,-0.38418 0.74965,-0.36672 0.9399,0.11351 0.21728,0.54834 0.40318,0.51079 4.64014,-0.95828 2.63389,-0.91331 4.53004,-1.44025 4.7017,-1.31015 0.1594,0.12224 0.5258,0.1397 0.81609,0.0437 0.49849,-0.17463 3.27282,0.0917 3.72727,0.34925 0.11619,0.0655 0.72323,0.0437 1.34923,-0.0567 0.84667,-0.12661 1.35833,-0.41911 1.9977,-1.11152 0.9079,-0.9884 3.93962,-7.51298 3.73285,-8.03425 -0.11699,-0.29251 0.51378,-2.26669 1.8767,-5.87759 0.35344,-0.93644 0.59584,-1.82094 0.53856,-1.96501 1.32909,-5.28166 1.78775,-11.9752 5.29101,-12.89332 11.97002,-0.0437 16.30662,23.70112 10.28492,31.99645 -0.28128,0.37545 -0.57671,1.46819 -0.65649,2.42429 -0.0795,0.95697 -0.34977,2.15318 -0.59975,2.66004 -0.2503,0.50512 -0.39584,1.06829 -0.32327,1.25078 0.0709,0.18336 -0.0326,0.6505 -0.23726,1.04123 -0.20261,0.39291 -0.31023,0.85612 -0.23971,1.03468 0.21932,0.5527 -1.00414,2.77486 -1.6511,2.99925 -0.33713,0.11788 -0.63896,0.35799 -0.67239,0.52739 -0.0326,0.17899 -0.50065,0.26194 -1.07997,0.19645 -0.94271,-0.11351 -1.10003,-0.0437 -2.04364,0.943 l -1.02208,1.06917 1.19191,0.5038 c 0.6556,0.27505 1.42795,0.41911 1.71645,0.32307 0.28862,-0.10041 0.6547,-0.0786 0.81291,0.0437 0.1594,0.12224 0.72331,0.0698 1.25494,-0.11351 0.53167,-0.18773 0.99547,-0.48984 1.03163,-0.67757 0.0326,-0.19209 0.33835,-0.43744 0.67276,-0.55357 0.33428,-0.11351 0.78576,-0.57453 1.00508,-1.01416 l 0.39706,-0.80329 1.41882,1.21978 c 0.78014,0.67014 2.29198,2.0257 3.35972,3.01148 1.06758,0.98666 2.1893,1.88251 2.49284,1.99121 0.30452,0.10915 0.62417,0.37982 0.71304,0.60378 0.39216,0.98928 2.26275,2.90452 2.93478,3.00712 0.40113,0.0655 1.08319,0.32743 1.51726,0.58937 0.43396,0.26195 0.94137,0.42784 1.12755,0.36672 0.32898,-0.1135 2.57506,1.83754 2.81505,2.44219 0.0677,0.17027 0.98124,1.07834 2.03181,2.0209 1.05071,0.943 2.05669,2.02046 2.23553,2.39373 0.18018,0.37109 0.64891,0.78933 1.04458,0.92423 0.39543,0.13534 1.03709,0.62866 1.42493,1.09536 0.8852,1.06524 4.2249,9.3885 3.92165,9.77313 -0.11945,0.14843 -0.0245,0.76225 0.21402,1.35948 0.26172,0.65923 0.34529,1.83579 0.21361,2.99621 -0.11944,1.05083 -0.11618,2.1654 0.008,2.47755 0.12312,0.30997 0.003,0.92553 -0.26457,1.36385 -0.26946,0.44007 -0.5379,1.27654 -0.59632,1.86199 -0.0579,0.58544 -0.64663,2.0484 -1.30724,3.25028 -0.66033,1.20276 -1.45641,2.6727 -1.76884,3.26775 -0.31267,0.59505 -0.76073,1.14819 -0.99603,1.23027 -0.23522,0.0786 -0.42527,0.36672 -0.42392,0.62954 0.002,0.26631 -0.15573,0.53654 -0.35018,0.60421 -0.52014,0.18336 -1.72685,1.50356 -1.94038,2.12699 -0.10232,0.2925 -0.55678,0.66926 -1.01128,0.82687 -0.84781,0.2925 -1.52815,0.93776 -2.21367,2.0938 -0.47277,0.79806 -1.31144,1.35556 -3.98736,2.65262 -1.12445,0.54615 -2.95467,1.46514 -4.06608,2.04447 -1.11144,0.57846 -3.28161,1.5625 -4.82309,2.18461 -1.54088,0.62343 -2.87783,1.29182 -2.96895,1.49046 -0.0909,0.19646 -0.84047,0.59243 -1.66431,0.87883 -0.82388,0.28377 -1.52688,0.6745 -1.5617,0.86528 -0.0326,0.1921 -0.37097,0.44924 -0.74577,0.5789 -0.37464,0.12661 -0.70965,0.39292 -0.74577,0.5789 -0.0326,0.19209 -0.86766,0.6208 -1.84874,0.96133 -0.98111,0.33616 -1.85929,0.77841 -1.95277,0.97094 -0.0934,0.19209 -0.97895,0.70768 -1.96883,1.14295 -0.98935,0.43657 -2.28791,1.03555 -2.88032,1.34508 l -1.07964,0.55663 1.17671,-0.97618 c 0.64716,-0.53698 1.04621,-1.0373 0.88711,-1.1102 -0.1594,-0.0742 -0.0326,-0.22702 0.27883,-0.32743 0.31268,-0.10478 1.21369,-0.85525 2.00206,-1.65985 0.78837,-0.80461 1.61674,-1.52583 1.84079,-1.60354 0.22421,-0.0786 0.43745,-0.2925 0.47227,-0.48372 0.0326,-0.19209 0.30982,-0.43221 0.61084,-0.53611 0.30126,-0.10478 0.99974,-0.62561 1.55179,-1.16172 0.55283,-0.53437 1.77161,-1.71312 2.7089,-2.61857 0.93708,-0.90545 1.66439,-1.74585 1.61633,-1.86722 -0.0465,-0.11788 0.15042,-0.29687 0.44035,-0.40165 0.28985,-0.10041 0.65878,-0.51952 0.82013,-0.92815 0.16143,-0.41038 0.44068,-0.79631 0.62131,-0.85874 0.40562,-0.13971 1.45902,-2.50244 1.29754,-2.90889 -0.0648,-0.16153 0.051,-0.62124 0.25683,-1.01765 0.20627,-0.39728 0.4993,-1.54896 0.65209,-2.56007 0.25356,-1.67862 0.19445,-2.03792 -0.68491,-4.1278 l -0.96281,-2.28851 -2.6685,-1.24642 c -2.1599,-1.00892 -2.83828,-1.18748 -3.56062,-0.93688 -0.52926,0.18772 -1.19366,0.1528 -1.63414,-0.0786 -0.40811,-0.21392 -1.0496,-0.2794 -1.42583,-0.14843 -0.37627,0.1266 -1.3178,0.1659 -2.09166,0.083 -1.50699,-0.1659 -2.80074,0.12224 -2.61656,0.58719 0.0624,0.15716 -0.0811,0.34926 -0.31716,0.42784 -0.23603,0.083 -0.33265,0.39291 -0.21646,0.68367 0.23032,0.58064 1.11759,0.74392 1.48828,0.27504 0.12515,-0.16153 0.44467,-0.1528 0.71083,0.0437 0.26457,0.17026 0.90301,0.26631 1.41825,0.21829 0.51581,-0.0568 1.28429,-0.12661 1.70854,-0.1659 0.42437,-0.0437 1.11899,0.0742 1.54385,0.25321 0.42515,0.18336 1.1708,0.18773 1.65803,0.0437 0.67932,-0.23575 1.32428,-0.10041 2.7698,0.5789 1.75665,0.82643 1.92297,0.98534 2.46524,2.35138 0.60794,1.53193 0.52967,3.72004 -0.20057,5.62044 -0.19649,0.50992 -0.34773,1.17962 -0.33673,1.48828 0.008,0.3056 -0.23277,0.77623 -0.54247,1.03992 -0.30941,0.26194 -0.65001,0.73126 -0.75588,1.04079 -0.10599,0.3056 -0.54496,0.77972 -0.97569,1.04515 -0.4298,0.27068 -0.7814,0.68673 -0.77953,0.93471 0.001,0.24448 -0.16428,0.50904 -0.36975,0.5802 -0.20546,0.0742 -1.14295,0.97531 -2.08277,2.00998 -0.9399,1.03337 -2.0122,1.98467 -2.38281,2.11302 -0.37056,0.1266 -1.31906,0.89192 -2.10751,1.69565 -0.7883,0.80504 -1.6167,1.52626 -1.84075,1.60397 -0.22421,0.0786 -0.43615,0.29687 -0.47223,0.48372 -0.0326,0.19646 -0.35344,0.44661 -0.70745,0.56929 -0.35385,0.12224 -0.81862,0.5741 -1.03318,1.00106 -0.21361,0.42785 -0.55433,0.8391 -0.75637,0.91157 -0.545,0.19209 -2.11958,1.5005 -2.42932,2.01085 -0.78409,1.29226 -1.42151,1.74761 -5.22725,3.73882 -0.63277,0.32743 -1.17594,0.73519 -1.20635,0.90021 -0.0285,0.16153 -0.47268,0.44312 -0.98209,0.61993 -0.50953,0.179 -1.00313,0.47805 -1.09534,0.67407 -0.19323,0.40165 -1.38066,0.97312 -11.14109,5.36287 -1.21551,0.54833 -2.04865,0.77753 -2.32679,0.65093 -0.23848,-0.10915 -1.10774,0.0437 -1.93161,0.32306 -0.82388,0.28377 -1.6282,0.41911 -1.78629,0.29687 -0.16999,-0.13097 -1.88188,0.3318 -4.1439,1.11676 -3.27061,1.13378 -4.0688,1.31408 -5.26324,1.18136 -0.77411,-0.0829 -1.95844,0.0437 -2.63157,0.26631 -0.694,0.24012 -1.76178,0.32743 -2.46593,0.21392 -0.6832,-0.11787 -1.45424,-0.1397 -1.71339,-0.0524 -0.645,0.22702 -2.49899,0.26195 -4.07501,0.0873 -0.71996,-0.083 -1.78534,0.0437 -2.3678,0.22265 -0.58255,0.20083 -1.22681,0.29251 -1.43329,0.20083 -0.20505,-0.0873 -1.17178,0.0437 -2.14555,0.28377 -1.79746,0.46015 -3.52512,0.76793 -4.403499,0.78452 -0.896932,0 0.289438,-0.99189 2.309589,-1.96414 1.05107,-0.50555 2.52566,-1.21455 3.27685,-1.57472 0.75095,-0.36236 1.44222,-0.81334 1.53533,-1.0063 0.0934,-0.1921 0.71573,-0.5383 1.38237,-0.76968 0.66673,-0.23139 1.2423,-0.57235 1.27716,-0.76313 0.0326,-0.19209 0.49995,-0.49377 1.03154,-0.678 0.53171,-0.18773 0.99681,-0.48678 1.03162,-0.67756 0.0326,-0.19646 0.44561,-0.47499 0.91079,-0.63609 1.02062,-0.35362 2.89447,-2.32781 3.42768,-3.61002 0.2128,-0.51167 0.498,-0.96876 0.63416,-1.01591 0.35385,-0.12224 1.42269,-1.70787 2.5486,-3.77854 1.29938,-2.39024 2.11539,-3.63054 2.46973,-3.75322 0.16102,-0.0568 1.08527,-1.90826 2.05415,-4.11688 1.85656,-4.23214 2.00434,-5.39692 1.00814,-7.94563 -0.22503,-0.57541 -0.31145,-1.16958 -0.19241,-1.31976 0.11944,-0.14844 -0.008,-0.8391 -0.2821,-1.52976 -0.27354,-0.69109 -0.36975,-1.30098 -0.2128,-1.35512 0.16959,-0.0611 -0.12352,-1.13116 -0.71773,-2.62773 -0.55189,-1.39049 -0.9063,-2.65218 -0.78727,-2.80324 0.11945,-0.14843 -0.0836,-1.02987 -0.4503,-1.95366 -0.36934,-0.93165 -0.79432,-1.63672 -0.95258,-1.58171 -0.15735,0.0568 -0.37708,-0.12224 -0.48837,-0.39291 -0.11048,-0.27068 -0.58039,-0.7234 -1.0423,-1.00587 -0.46156,-0.2794 -0.89514,-0.64525 -0.96334,-0.80678 -0.0669,-0.15717 -0.83562,-0.61295 -1.70553,-1.00281 -0.86998,-0.38855 -1.63663,-0.84608 -1.70385,-1.01591 -0.15777,-0.39728 -3.42063,-1.87202 -3.82943,-1.73057 -0.17081,0.0611 -0.54443,-0.0437 -0.82751,-0.1921 -0.86778,-0.49769 -4.11218,-0.74435 -4.63215,-0.35362 -0.28455,0.21829 -0.69559,0.24448 -1.01275,0.0567 -0.29188,-0.16589 -0.83016,-0.20082 -1.1946,-0.0786 -0.36445,0.12224 -0.79286,0.12661 -0.95099,0 -0.1598,-0.12224 -0.59474,-0.11351 -0.96921,0 -0.37464,0.12661 -0.81096,0.13534 -0.96917,0 -0.1594,-0.12224 -0.512713,-0.14407 -0.786987,-0.0524 -0.600482,0.20956 -3.826372,-0.1528 -4.407979,-0.49813 -1.529293,-0.89847 -2.505393,-2.06193 -3.201104,-3.81565 l -0.734725,-1.8515 -0.385645,1.10147 -0.385646,1.10147 -1.462397,-0.11351 c -1.197336,-0.096 -1.951995,0.0742 -4.165096,0.94169 -1.631738,0.63303 -2.820432,1.25733 -2.998334,1.56774 -0.289846,0.50118 -3.31798,1.44418 -5.38571,1.67382 -0.689189,0.0786 -0.811079,0.23575 -0.790492,0.99713 0.01631,0.49813 0.02446,1.14994 0.02038,1.44855 -0.0082,0.76007 1.818813,0.98709 4.09718,0.50992 3.535262,-0.74043 4.379199,-0.8618 4.634231,-0.66621 0.141457,0.10478 0.821515,0.002 1.510377,-0.23575 0.688863,-0.24012 1.382618,-0.3318 1.540871,-0.21392 0.15858,0.11787 0.791267,0.048 1.406017,-0.1659 0.614791,-0.21392 1.676988,-0.28814 2.360022,-0.17463 0.683114,0.11788 1.488038,0.12661 1.78836,0.0437 0.300445,-0.10478 0.676226,-0.0873 0.834479,0.0437 0.159395,0.12224 0.586499,0.11787 0.950988,0 0.364447,-0.12661 0.909855,-0.0873 1.212338,0.0873 0.876793,0.50293 3.019696,0.67887 3.589399,0.29687 0.286585,-0.19646 0.655023,-0.26194 0.835943,-0.10914 0.17326,0.13097 0.62046,0.13533 0.99494,0 0.37464,-0.12661 0.81095,-0.13534 0.96913,0 0.1598,0.12224 0.59473,0.11351 0.96916,0 0.37464,-0.12661 0.80966,-0.13971 0.96917,0 0.1594,0.12224 0.64133,0.096 1.07284,-0.0568 0.86791,-0.30123 3.99241,0 4.78727,0.44749 0.27884,0.15717 0.65914,0.24011 0.84483,0.17463 0.40725,-0.1397 2.95565,1.04079 2.83181,1.31365 -0.0477,0.10041 0.53158,0.46582 1.28783,0.80155 0.7565,0.33616 1.41368,0.70681 1.4606,0.82512 0.0465,0.11787 0.58214,0.56492 1.18984,0.99277 1.28343,0.90327 2.6038,2.97655 2.30894,3.62486 -0.11333,0.24448 0.19446,1.41144 0.72979,2.76045 0.50872,1.28222 0.82763,2.45398 0.70843,2.60416 -0.11944,0.14844 0.003,0.83211 0.27558,1.5136 0.27028,0.68193 0.39462,1.36255 0.27558,1.5136 -0.11945,0.14844 0.0611,0.97269 0.39991,1.82706 0.35263,0.88755 0.56832,2.01042 0.50403,2.62075 -0.17203,1.63584 -1.90128,5.36941 -2.9075,6.27617 -0.49478,0.44313 -0.832,0.97574 -0.75083,1.18006 0.0815,0.20519 -0.13168,0.80591 -0.47321,1.33591 -0.34121,0.53044 -1.05042,1.78559 -1.57552,2.78971 -0.52523,1.00368 -1.37402,2.27891 -1.88657,2.83205 -0.51251,0.55401 -1.10635,1.42628 -1.31951,1.93969 -0.21321,0.51254 -0.53795,0.98491 -0.72201,1.04865 -0.18385,0.0611 -0.46607,0.45229 -0.62751,0.86092 -0.20301,0.51647 -0.65592,0.87053 -1.4776,1.15561 -0.65164,0.22702 -1.27553,0.60989 -1.3862,0.85394 -0.11089,0.24448 -0.54456,0.60683 -0.96404,0.80679 -2.18917,1.0421 -3.24941,1.63191 -3.67537,2.03705 -0.45915,0.43875 -1.00835,0.73562 -4.68095,2.54347 -0.971085,0.48198 -2.038215,1.11195 -2.368216,1.4062 -0.400321,0.35799 -1.775234,0.84695 -4.131423,1.46994 -1.944902,0.50687 -5.027133,1.4049 -6.848758,1.99689 -2.726345,0.88581 -3.580146,1.04428 -4.825219,0.89934 -0.83187,-0.096 -1.737852,-0.096 -2.01343,-10e-4 -0.275578,0.0917 -0.63122,0.0742 -0.789432,-0.048 -0.159803,-0.12224 -0.496488,-0.14844 -0.751031,-0.0611 -0.689311,0.24011 -6.526055,-0.5706 -7.679405,-1.06568 -0.550544,-0.24011 -1.134801,-0.38418 -1.298313,-0.32743 -0.163879,0.0568 -0.631465,-0.0699 -1.039246,-0.2794 -0.407986,-0.21392 -0.894772,-0.3318 -1.081847,-0.26631 -0.530283,0.18772 -1.670791,-0.52302 -1.940417,-1.20276 -0.143496,-0.36236 -0.422662,-0.55227 -0.679528,-0.46321 -0.239703,0.0873 -0.663424,-0.10041 -0.941815,-0.41038 -0.278024,-0.3056 -0.779812,-0.66009 -1.11397,-0.77884 -1.121389,-0.40165 -2.74318,-5.28952 -2.520354,-7.59594 0.02854,-0.3187 -0.03261,-0.80678 -0.145942,-1.08663 -0.110475,-0.27941 0.225843,-1.43196 0.747607,-2.56225 0.877568,-1.89691 1.032682,-2.06717 2.045471,-2.24486 0.603051,-0.10477 1.576256,-0.13097 2.163407,-0.0611 0.58703,0.0699 1.208792,0.0829 1.381639,0.0437 0.172033,-0.0611 1.844211,0.0873 3.714144,0.32307 1.869933,0.23575 3.569017,0.36672 3.7757,0.29687 0.207091,-0.0742 0.426575,-0.003 0.491474,0.15716 0.06359,0.15717 0.484462,0.29687 0.93619,0.30997 0.451442,0 0.873084,0.14843 0.936352,0.30997 0.06237,0.1528 0.351403,0.20519 0.641615,0.10477 0.289439,-0.10041 0.861385,0 1.269248,0.20083 0.408026,0.21392 0.948134,0.31433 1.200312,0.23138 0.251933,-0.0873 0.720538,0.0437 1.040102,0.27941 0.322866,0.24448 0.89098,0.33179 1.276707,0.20082 0.382385,-0.13097 0.825429,-0.1397 0.983601,-0.0437 0.174886,0.13098 2.30034,-0.47717 5.399407,-1.55201 3.099026,-1.07441 5.136467,-1.90783 5.175969,-2.1152 0.03669,-0.19209 0.437215,-0.4715 0.892122,-0.6291 0.454907,-0.15717 1.129746,-0.55576 1.500634,-0.88188 1.22893,-1.08619 1.63606,-1.41493 2.781379,-2.24704 0.625594,-0.45185 1.737316,-1.43545 2.472656,-2.18068 0.73513,-0.74611 1.4434,-1.39398 1.57393,-1.43851 0.42319,-0.14844 1.63353,-1.53194 1.8235,-2.08726 0.10233,-0.29687 0.47321,-0.63958 0.82576,-0.76182 0.35262,-0.12224 0.86676,-0.59156 1.14336,-1.04035 0.27599,-0.44967 0.69946,-0.88581 0.94055,-0.9692 0.24093,-0.0873 0.46702,-0.3056 0.50318,-0.49507 0.0326,-0.19209 0.35874,-0.44487 0.71829,-0.56885 0.35915,-0.12224 0.78487,-0.56318 0.94646,-0.97182 0.16144,-0.41037 0.43971,-0.79587 0.6192,-0.8583 0.49502,-0.17026 1.61771,-2.92722 1.40785,-3.45635 -0.32898,-0.82861 -1.51319,-0.52825 -1.88363,0.47849 -0.42527,1.15517 -1.36077,2.32737 -2.04894,2.56574 -0.29514,0.10041 -0.6622,0.50555 -0.81528,0.89366 -0.43216,1.09842 -1.69125,1.68081 -9.368088,4.32688 -7.296939,2.49283 -10.442601,3.39042 -11.10941,3.1001 -0.205052,-0.0917 -0.607371,-0.0873 -0.892448,0 -0.584216,0.20083 -1.677192,0.0524 -2.813379,-0.39291 -0.420419,-0.16153 -1.042303,-0.20083 -1.381354,-0.0873 -0.896932,0.30997 -2.784313,-0.92248 -3.291971,-2.15187 -0.146757,-0.34925 -0.530406,-0.80547 -0.856818,-1.01154 -0.413326,-0.26631 -0.743775,-0.88187 -1.087432,-2.0449 -0.492819,-1.66509 -0.497507,-1.67164 -2.155091,-2.34091 l -1.661171,-0.67101 0.0082,0.77055 c 0.0033,0.42784 0.383608,1.54503 0.844344,2.49109 0.549607,1.12941 0.729425,1.75808 0.528449,1.82749 -0.169994,0.0611 -0.517809,0.52171 -0.772025,1.03293 -0.611408,1.2211 -2.468581,3.30879 -3.154835,3.54672 -0.300037,0.10478 -0.574718,0.34053 -0.609614,0.53175 -0.03261,0.19209 -0.369747,0.45229 -0.744467,0.58195 -0.374639,0.12661 -0.710958,0.38855 -0.745772,0.5789 -0.03261,0.19209 -0.739494,0.57627 -1.563944,0.86223 -1.87666,0.65093 -4.933779,0.37982 -5.269813,-0.4667 -0.120667,-0.30123 -0.584828,-0.73606 -1.031704,-0.96133 -0.467341,-0.23575 -0.967783,-0.7998 -1.177646,-1.32893 -0.200569,-0.50599 -0.524739,-0.95435 -0.719967,-0.99539 -0.20383,-0.048 -0.90211,-1.45422 -1.632717,-3.29569 -0.730403,-1.84015 -1.184372,-3.33585 -1.060974,-3.49258 0.119444,-0.14844 -0.05544,-0.95828 -0.387684,-1.79563 -0.332242,-0.83778 -0.506721,-1.64544 -0.387684,-1.7965 0.119444,-0.14843 0.09621,-0.57715 -0.05096,-0.94736 -0.147573,-0.37545 -0.169994,-0.79675 -0.05096,-0.94736 0.119444,-0.14844 0.0424,-0.71162 -0.169994,-1.24773 -0.212798,-0.53524 -0.26987,-1.01241 -0.12882,-1.06175 0.141865,-0.0524 0.238073,-0.55401 0.213613,-1.12024 -0.08194,-1.93577 0.165102,-4.14832 0.476921,-4.26183 0.172032,-0.0611 0.443166,-0.44792 0.603744,-0.85874 0.251525,-0.64045 0.656739,-0.87096 2.891976,-1.64763 2.785454,-0.9657 3.892127,-1.87202 4.068521,-3.32494 0.07256,-0.59941 -0.03261,-0.69677 -0.771862,-0.71554 -1.113114,-0.0437 -4.196037,1.04254 -4.280138,1.48435 -0.03669,0.19209 -0.35344,0.44268 -0.705536,0.56492 -0.352217,0.11788 -0.727753,0.41475 -0.833907,0.64657 -0.105992,0.23575 -0.374639,0.38855 -0.597181,0.33616 -0.663424,-0.14407 -0.159802,-1.07834 0.747974,-1.3931 0.439212,-0.15281 0.803822,-0.38855 0.809489,-0.52302 0.02854,-0.55881 1.907682,-2.26712 2.38126,-2.16147 0.842673,0.19209 2.040947,-0.38419 2.104909,-1.00106 0.03261,-0.32307 -0.134936,-1.12156 -0.372601,-1.77948 l -0.432078,-1.19577 -1.765369,0.0917 c -1.564882,0.0873 -1.770505,0.0437 -1.810986,-0.57191 -0.101915,-1.48042 0.01631,-2.74736 0.300037,-3.23981 0.164695,-0.28814 0.252342,-0.64045 0.194046,-0.78802 -0.220951,-0.55619 1.197581,-3.9178 1.829372,-4.33473 0.362409,-0.24448 0.768519,-0.78452 0.901538,-1.21018 0.132897,-0.42784 0.707371,-1.1949 1.276667,-1.70831 0.569133,-0.51428 1.212868,-1.12592 1.430395,-1.35993 0.218505,-0.23138 0.587029,-0.49114 0.820251,-0.57147 0.232774,-0.0829 0.780546,-0.561 1.21719,-1.06524 0.436399,-0.50511 0.953392,-0.97443 1.149069,-1.04254 0.195676,-0.0655 0.974469,-0.76749 1.730432,-1.55507 0.755964,-0.78714 1.719059,-1.55551 2.14013,-1.70656 0.423069,-0.14844 0.794121,-0.43221 0.830239,-0.6195 0.03261,-0.19209 0.379123,-0.45185 0.762649,-0.58457 0.383608,-0.13097 0.646996,-0.37109 0.585929,-0.52345 -0.06482,-0.16154 0.835498,-0.6099 2.158067,-1.06873 1.248335,-0.43221 2.399809,-0.68717 2.558022,-0.56668 0.157764,0.11788 0.919924,10e-4 1.691867,-0.26194 0.873777,-0.30124 1.872176,-0.41038 2.64571,-0.27068 0.683114,0.11788 1.487956,0.12224 1.788319,0.0437 0.300038,-0.10478 0.676226,-0.0917 0.834357,0.0437 0.158579,0.11787 0.597791,0.10914 0.975977,-0.0437 0.378308,-0.13097 0.896851,-0.0611 1.152698,0.16153 0.25601,0.22266 1.507728,0.39292 2.782315,0.37982 1.274506,0 2.526428,0.15717 2.782194,0.37982 0.255602,0.22265 2.35146,0.62736 4.657141,0.90196 l 4.191959,0.49944 2.92076,-1.01329 2.9208,-1.01285 -0.4488,-1.13072 -0.44903,-1.13116 -2.49896,0.86616 c -2.45684,0.85219 -2.565599,0.85263 -6.293113,0.40601 -2.086686,-0.25757 -4.218174,-0.67319 -4.736716,-0.93164 -0.518421,-0.26195 -1.090611,-0.41911 -1.271653,-0.35799 -0.181001,0.0655 -0.746139,-0.096 -1.254694,-0.34926 -0.515159,-0.25321 -1.450329,-0.37109 -2.109596,-0.26195 -0.652418,0.10478 -1.302675,0.10478 -1.448128,-0.003 -0.144312,-0.10477 -0.570275,-0.10041 -0.944669,0.0437 -0.374639,0.12661 -0.811039,0.13534 -0.96917,0 -0.158579,-0.11787 -0.534115,-0.13534 -0.834437,-0.0437 -0.300038,0.10478 -1.10541,0.0917 -1.788402,-0.0437 -0.77333,-0.13097 -1.771932,-0.0437 -2.645709,0.27067 -0.771903,0.27068 -1.533696,0.38855 -1.693172,0.26631 -0.380754,-0.2925 -6.489081,1.82575 -6.573874,2.27979 -0.03261,0.19209 -0.35181,0.4453 -0.704191,0.56754 -0.352217,0.12224 -0.721149,0.36672 -0.819843,0.54877 -0.09865,0.179 -0.693062,0.6911 -1.321347,1.13597 -0.628203,0.44487 -1.541482,1.21978 -2.028961,1.72446 -0.487397,0.50424 -1.062931,0.9788 -1.279153,1.05258 -0.21606,0.0742 -0.749727,0.55096 -1.186371,1.05563 -0.436358,0.50468 -0.951639,0.97313 -1.145237,1.04079 -0.194046,0.0699 -1.1145,0.96177 -2.046409,1.98772 -0.931746,1.02595 -1.982121,1.96938 -2.334298,2.09599 -0.353848,0.12224 -0.580752,0.37982 -0.507454,0.56536 0.07256,0.18773 -0.454255,1.71268 -1.171369,3.39785 -2.234258,5.25241 -2.313833,7.92293 -0.288623,9.71506 0.411329,0.36672 0.816053,0.83255 0.898645,1.04079 0.147572,0.37546 -0.759551,1.41013 -2.011514,2.30467 -0.347733,0.25321 -0.933907,0.92423 -1.301004,1.5005 -0.664362,1.04298 -0.591473,1.45859 0.442596,2.5282 0.273132,0.28377 0.229104,0.51821 -0.145127,0.80111 -0.320828,0.24448 -0.570315,1.08663 -0.628733,2.12655 -0.05381,0.94911 -0.22992,1.95585 -0.392576,2.237 -0.16184,0.27941 -0.180185,0.59941 -0.04077,0.70812 0.140643,0.10478 0.167141,0.54834 0.05993,0.97923 -0.107622,0.43221 -0.03261,1.19272 0.16551,1.69347 0.19853,0.50075 0.264163,1.03381 0.145127,1.18399 -0.119445,0.1528 -0.09621,0.57758 0.05137,0.9478 0.147572,0.37108 0.170401,0.79718 0.05096,0.9478 -0.119444,0.14843 0.05544,0.95871 0.387684,1.79606 0.331835,0.83647 0.50668,1.64544 0.387684,1.79606 -0.288623,0.36672 2.66972,7.81859 3.142483,7.91944 0.194861,0.0437 0.52584,0.50511 0.734643,1.03206 0.208721,0.52607 0.53917,0.99015 0.734683,1.03206 0.194862,0.0437 0.468034,0.36235 0.606231,0.70855 0.311044,0.78453 2.902208,1.97506 4.059797,1.86592 0.467382,-0.0437 1.069291,0.048 1.338754,0.19646 0.580058,0.32743 4.920529,-1.05957 5.024034,-1.61183 0.03261,-0.19209 0.37097,-0.4488 0.745731,-0.57846 0.374639,-0.12661 0.709694,-0.39292 0.745772,-0.57846 0.03261,-0.19209 0.300038,-0.42784 0.587111,-0.52433 0.842184,-0.2925 3.050352,-3.00755 3.596901,-4.42248 0.412714,-1.07004 0.549076,-1.06786 1.456607,0 1.97299,2.35531 4.31907,3.73008 5.605398,3.28434 0.422906,-0.14844 0.907653,-0.11351 1.077484,0.0742 0.358333,0.39728 2.297772,0.68629 2.985249,0.44792 0.258863,-0.0917 0.63819,-0.0917 0.84467,8.7e-4 0.54981,0.24448 3.533428,-0.52781 9.791855,-2.52776 3.054714,-0.97705 5.588194,-1.68429 5.629534,-1.57253 0.0416,0.10914 -0.54301,0.7592 -1.29791,1.44113 -0.754577,0.68149 -1.822644,1.66727 -2.373066,2.19028 -0.550788,0.52258 -1.235289,1.03294 -1.521914,1.13204 -0.286992,0.10041 -0.952211,0.62037 -1.479804,1.15692 -0.527348,0.53654 -1.407525,1.13116 -1.956031,1.32107 -0.548587,0.19209 -1.026119,0.50118 -1.062278,0.68847 -0.03669,0.20519 -1.886444,0.97443 -4.60439,1.917 -2.717906,0.94256 -4.655714,1.48434 -4.827747,1.35425 -0.159394,-0.11788 -0.602276,-0.10915 -0.986046,0.0437 -0.383607,0.13097 -0.743081,0.12224 -0.796322,0 -0.05463,-0.13534 -0.597139,-0.29687 -1.205611,-0.36672 -0.608962,-0.0611 -1.522934,-0.34053 -2.031938,-0.61906 -0.509003,-0.27941 -1.157956,-0.42348 -1.441932,-0.32743 -0.28373,0.096 -0.684052,0.10914 -0.889186,0.0437 -0.648423,-0.27941 -2.988184,-0.60291 -3.385774,-0.46539 -0.209944,0.0742 -0.809856,0 -1.332638,-0.18336 -0.523068,-0.17026 -1.138878,-0.24885 -1.367942,-0.17026 -0.228697,0.0829 -0.844955,0.003 -1.367615,-0.1659 -0.523027,-0.17026 -1.194646,-0.23139 -1.492115,-0.12224 -0.297591,0.10478 -0.704599,0.12224 -0.905901,0.048 -0.578387,-0.22702 -2.887736,-0.0437 -3.954336,0.35363 -0.830035,0.28377 -1.159546,0.74872 -2.223211,3.11102 -0.778874,1.73013 -1.157059,3.00406 -1.005369,3.38606 0.134119,0.33616 0.156541,0.72253 0.05096,0.85655 -0.28903,0.37109 0.131266,2.17501 1.276178,5.48947 0.892773,2.58321 1.128971,3.03331 1.787708,3.40091 0.940715,0.52563 1.93895,1.34901 2.086849,1.72184 0.124744,0.31434 3.498125,1.78646 4.073658,1.77773 0.202607,-0.003 0.671497,0.10478 1.042589,0.24885 0.369339,0.1397 0.974102,0.31433 1.34071,0.37545 0.367301,0.0655 1.390526,0.3187 2.275432,0.55838 0.884784,0.24448 1.961861,0.41037 2.393613,0.37108 0.431792,-0.0436 1.390811,0.083 2.13165,0.27504 0.740799,0.1921 1.590809,0.25758 1.88893,0.1528 0.297999,-0.10041 0.672271,-0.0873 0.830443,0.0437 0.15858,0.11788 0.580874,0.11788 0.938391,0 0.357518,-0.12224 0.773249,-0.1659 0.922533,-0.10041 0.604274,0.27941 2.776853,0.0917 4.056782,-0.34489 1.014337,-0.35363 1.401858,-0.36236 1.527703,-0.0437 0.135343,0.34053 0.61206,0.27068 2.446323,-0.36672 1.748002,-0.60597 2.566501,-0.74087 3.520016,-0.57759 0.683155,0.11351 1.66272,0.0655 2.176697,-0.10914 0.513936,-0.179 1.102148,-0.25321 1.307323,-0.16153 0.808021,0.34926 3.038407,0.58588 3.641128,0.38418 0.34937,-0.12224 1.05731,-0.0786 1.57108,0.0917 0.51373,0.1659 1.14275,0.23575 1.39811,0.14844 0.25397,-0.0873 0.89257,0 1.41527,0.15716 0.52307,0.17027 1.15213,0.24448 1.39766,0.15717 0.24541,-0.0873 1.00566,-0.0611 1.68873,0.0611 0.85246,0.14843 1.77185,0.0437 2.9314,-0.37545 0.92917,-0.32307 1.81954,-0.48547 1.97776,-0.36673 0.1598,0.12225 1.36643,-0.1528 2.68402,-0.61032 1.31768,-0.4571 2.5259,-0.73083 2.68538,-0.60728 0.1598,0.12224 0.83383,0.0437 1.50055,-0.19646 0.66665,-0.23138 1.37977,-0.34925 1.5862,-0.25757 0.20506,0.0873 1.24381,-0.0437 2.30666,-0.29251 2.99332,-0.70681 16.33756,-5.13017 16.48885,-5.46458 l 0,0 z m -32.0722,6.04523 -0.98637,-0.13971 1.01332,-0.31433 c 0.55026,-0.19209 1.32669,-0.24011 1.72289,-0.11351 0.69261,0.21392 0.69192,0.23139 -0.0204,0.47761 -0.40521,0.13971 -1.18156,0.1921 -1.72273,0.11788 z"
       id="path3866"
       inkscape:connector-curvature="0"
       sodipodi:nodetypes="cssssscccssssscssssssscscsscscssscscscsccssssscccssscccscssscscscscscscsscssscssscscscccscssccccsscsccssscccssscsscccccsssssscscsscscssccscscsccccscscscsscssssssscscccscscscsssssscsscsscscssscccccssscsscscscsssssccsscscscscscscscsscccccssssssssssccssscsscscssscccssssscsccccsccccssssscssscccssssssscssccscscsccsscssscscccsccccssscssssscccsccsccssssscscscssssccssscssscsscssscscsccssccsscsssssscscscscscssscccsccsscscccsccscsccssscsccsssssscssscscscccccsssscccssscsccsccsscsccsccsccccscccscscsccscscccscsssssscscssssscscssssssssssscscscscscccccsscsscsscscccccscssssssscccccscscc" />
    <path
       style="fill:#000000;fill-opacity:1;stroke:#000000;stroke-width:1.86318219;stroke-linecap:butt;stroke-linejoin:miter;stroke-miterlimit:4;stroke-opacity:1;stroke-dasharray:none"
       d="m 90.119936,732.04681 c -0.12882,0.31869 0.872921,1.79649 0.897789,2.26232 0.0082,0.14407 -0.160618,0.24011 -0.174071,0.37982 -0.02038,0.21828 0.580751,1.20363 0.561184,1.41449 -0.03261,0.3449 -0.513773,0.68673 -0.347326,0.76444 0.131674,0.0611 0.120667,-0.51559 0.17244,-0.38418 0.08357,0.20955 -0.04077,0.44268 -0.06115,0.66446"
       id="path3868"
       inkscape:connector-curvature="0" />
    <path
       style="fill:#000000;fill-opacity:1;stroke:#000000;stroke-width:1.31975389;stroke-linecap:butt;stroke-linejoin:miter;stroke-miterlimit:4;stroke-opacity:1;stroke-dasharray:none"
       d="m 83.27077,732.81343 c 0.282101,0.43788 0.512102,0.912 0.846831,1.31408 0.09335,0.10915 0.305745,0.0742 0.397468,0.18336 0.192007,0.23139 0.368116,1.18137 0.561021,1.41406 0.147572,0.18336 0.377492,0.27941 0.510226,0.4667 0.134528,0.19209 0.411451,1.27829 0.561021,1.4145 0.10803,0.10041 0.290661,0.0829 0.397468,0.18336 0.07623,0.0698 0.03669,0.21828 0.111698,0.2794 0.10803,0.10042 0.291069,0.0873 0.398691,0.18773 0.02038,0.0437 0.33795,0.8308 0.336727,0.84826 -0.02854,0.30124 -0.451401,0.72209 -0.633054,0.86311 -0.07746,0.0655 -0.323274,0 -0.285769,0.096 0.03669,0.096 0.326942,-0.19209 0.285769,-0.096 -0.199753,0.43788 -0.393799,0.45665 -0.745772,0.57889"
       id="path3870"
       inkscape:connector-curvature="0" />
    <path
       style="fill:#000000;fill-opacity:1;stroke:#000000;stroke-width:1.20330513;stroke-linecap:butt;stroke-linejoin:miter;stroke-miterlimit:4;stroke-opacity:1;stroke-dasharray:none"
       d="m 74.268225,731.42993 c 0.594042,0.60072 0.78984,1.17176 1.071248,1.88119 0.07542,0.19209 0.105583,0.40165 0.22462,0.56536 0.133305,0.1921 0.377492,0.27941 0.510063,0.4667 0.119037,0.1659 0.105584,0.40165 0.224621,0.5658 0.133304,0.19209 0.339987,0.30997 0.510063,0.46626 0.170402,0.1528 0.322458,0.32743 0.510267,0.4667 0.237666,0.17026 0.580955,0.17026 0.796037,0.37108 0.07623,0.0699 0.07542,0.19209 0.111698,0.27941 0.170402,0.15717 0.322459,0.33179 0.510145,0.46626 0.237665,0.17026 0.580996,0.17026 0.796118,0.37109 0.204237,0.18772 0.132489,0.66184 0.336727,0.84782 0.108029,0.10041 0.290661,0.083 0.397467,0.18336 0.07623,0.0699 0.03669,0.21392 0.111699,0.27941 0.106399,0.10041 0.291069,0.0873 0.398691,0.18773 0.750786,0.68585 -0.809897,-0.14407 0.510023,0.46582"
       id="path3872"
       inkscape:connector-curvature="0" />
    <path
       style="fill:#000000;fill-opacity:1;stroke:#000000;stroke-width:1.20330513;stroke-linecap:butt;stroke-linejoin:miter;stroke-miterlimit:4;stroke-opacity:1;stroke-dasharray:none"
       d="m 70.031544,733.86382 c 0.245004,0.3449 0.506476,0.67844 0.734806,1.03293 0.154911,0.24012 0.152465,0.62692 0.337135,0.8487 0.146349,0.17463 0.363224,0.28814 0.509981,0.46583 0.06808,0.083 0.04525,0.20519 0.111699,0.28377 0.14798,0.18336 0.353441,0.2925 0.510186,0.46713 0.222174,0.24012 0.400729,0.51079 0.622251,0.74873 0.31349,0.33616 0.754944,0.56012 1.020657,0.93295 0.119036,0.1659 0.105583,0.40165 0.22462,0.56624 0.13412,0.19209 0.363632,0.28814 0.510104,0.46669 0.132082,0.15717 0.149611,0.37546 0.22462,0.56537"
       id="path3874"
       inkscape:connector-curvature="0" />
    <path
       style="fill:#000000;fill-opacity:1;fill-rule:nonzero;stroke:#000000;stroke-width:1.45561111;stroke-linecap:round;stroke-linejoin:round;stroke-miterlimit:4;stroke-opacity:1;stroke-dasharray:none"
       d="m 77.778743,695.69904 c 0.03669,-0.19646 0.374231,-0.47238 0.748463,-0.60247 0.374639,-0.12661 0.709612,-0.39292 0.745731,-0.5789 0.03261,-0.19209 0.757186,-0.58283 1.603202,-0.87577 0.846137,-0.2925 1.567124,-0.68891 1.603242,-0.8762 0.08398,-0.44923 4.482133,-1.97375 4.859055,-1.68517 0.157764,0.11787 0.666523,0.0873 1.128931,-0.0699 0.743367,-0.25758 0.801581,-0.38855 0.503908,-1.13946 -0.258456,-0.65137 -0.465629,-0.80417 -0.891551,-0.65617 -0.305337,0.10478 -0.684868,0.0917 -0.84304,-0.0437 -0.378308,-0.28813 -5.917868,1.63017 -6.002294,2.08159 -0.03261,0.19645 -0.757187,0.58282 -1.603243,0.87576 -0.846015,0.2925 -1.567124,0.68891 -1.603243,0.8762 -0.03261,0.1921 -0.35344,0.44225 -0.705454,0.56449 -0.352218,0.12224 -0.729262,0.41475 -0.835865,0.65137 -0.144311,0.3187 -0.468441,0.43221 -1.248049,0.43221 -0.852171,0.002 -1.147602,0.1266 -1.548168,0.66708 -0.510471,0.68411 -0.434157,1.41144 0.161433,1.53805 0.677489,0.14407 3.858985,-0.80548 3.927961,-1.17176 l 0,0 z"
       id="path3876"
       inkscape:connector-curvature="0" />
    <path
       style="fill:#000000;fill-opacity:1;stroke:#000000;stroke-width:0.53559721px;stroke-linecap:butt;stroke-linejoin:miter;stroke-opacity:1"
       d="m 160.51443,653.2554 c 1.53842,-0.88668 -0.44455,-1.39093 -0.38035,-2.0877 0.0204,-0.19209 0.22177,-0.33179 0.23971,-0.52738 0.0163,-0.13533 -0.16796,-0.25321 -0.15491,-0.39291 0.0204,-0.1921 0.22136,-0.3318 0.2397,-0.52738 0.0163,-0.13534 -0.16796,-0.25758 -0.15491,-0.39292 0.0204,-0.19646 0.19771,-0.33179 0.2397,-0.52694 0.13331,-0.59723 0.0326,-1.23769 0.16837,-1.83448 0.086,-0.37546 0.49979,-0.6649 0.47863,-1.05476 -0.0163,-0.27068 -0.29433,-0.50468 -0.30982,-0.78103 -0.0245,-0.39292 0.3942,-0.67625 0.47871,-1.05345 0.0669,-0.30124 2.9e-4,-0.62387 0.0844,-0.91812 0.10599,-0.37108 0.3726,-0.68236 0.47875,-1.05345 0.0844,-0.2925 0.0204,-0.61906 0.0844,-0.91768 0.0424,-0.19209 0.19771,-0.33179 0.2397,-0.52694 0.0669,-0.29687 0.0204,-0.61906 0.0844,-0.91768 0.084,-0.37981 0.31919,-0.70288 0.47871,-1.05432 0.0799,-0.17899 0.0538,-0.4632 0.23971,-0.52738 0.13167,-0.048 0.14798,0.25758 0.15491,0.39292 0.0163,0.3056 -0.0204,0.61862 -0.0844,0.91811 -0.0424,0.19209 -0.15899,0.35362 -0.2397,0.52694 -0.0807,0.17463 -0.42527,0.59156 -0.23971,0.52695 0.26498,-0.0917 1.43998,-1.122 1.66146,-1.46427 0.21035,-0.32306 0.26905,-0.73039 0.47871,-1.05389 0.16633,-0.25758 0.46902,-0.40601 0.63347,-0.66402 0.21035,-0.32307 0.31919,-0.70289 0.47875,-1.05477 0.0807,-0.17462 0.0563,-0.6112 0.2397,-0.52694 0.25887,0.11788 0.20628,0.52127 0.30983,0.78103 0.30982,0.78059 0.61968,1.56119 0.92954,2.34221 0.10232,0.26195 0.27354,0.50643 0.30982,0.78103 0.0408,0.30561 -0.13983,0.61164 -0.0844,0.91681 0.0746,0.41038 0.30982,0.78146 0.46481,1.17176 0.10354,0.26194 0.29433,0.50512 0.30982,0.78059 0.008,0.19209 -0.22136,0.3318 -0.2397,0.52651 -0.008,0.1397 0.0986,0.51559 0.15491,0.39292 0.25234,-0.5562 9.3e-4,-1.24773 0.16877,-1.83536 0.18263,-0.63914 0.77484,-1.4695 0.95739,-2.10777 0.002,-0.001 0.0245,-1.34028 0.32368,-1.44462 0.13167,-0.048 0.10232,0.25757 0.15491,0.39291 0.36322,0.91593 -0.16551,-0.14843 0.70399,0.64395 0.10395,0.0917 0.0505,0.29687 0.15491,0.39291 0.80728,0.73869 0.4653,-0.15716 1.18278,-0.41037 0.18589,-0.0655 0.40073,0.11787 0.5492,0.25757 0.0934,0.0873 0.53884,1.35775 0.61968,1.56163 0.14594,0.37108 0.76134,1.7035 0.77459,1.95191 0.008,0.1921 -0.19771,0.3318 -0.2397,0.52695 -0.0669,0.29687 -0.0204,0.61906 -0.0844,0.91724 -0.0424,0.19209 -0.19771,0.33179 -0.2397,0.52738 -0.0669,0.29687 -0.0204,0.61906 -0.0844,0.91724 -0.084,0.37982 -0.39421,0.67669 -0.47856,1.05432 -0.1439,0.64002 -0.0285,1.1949 -0.16877,1.83536 -0.0424,0.19209 -0.24989,0.33179 -0.2397,0.52694 0.0163,0.27067 0.29474,0.50468 0.30982,0.78059 0.008,0.19209 -0.22136,0.3318 -0.2397,0.52738 -0.0163,0.13534 0.14838,0.25322 0.15491,0.39292 0.0163,0.3056 -0.0563,0.61076 -0.0844,0.9168 -0.0285,0.3056 -0.0204,0.61863 -0.0844,0.91768 -0.0424,0.19209 -0.22177,0.33179 -0.23971,0.52694 -0.0163,0.13534 0.0285,0.3318 0.15451,0.39292 0.12963,0.0611 0.26375,-0.19646 0.3942,-0.13534 0.12964,0.0611 0.10355,0.25758 0.15491,0.39292 0.30942,0.77972 0.61948,1.56118 0.92934,2.34134 0.051,0.1266 0.21158,0.26631 0.15491,0.39291 -0.0554,0.12224 -0.31349,0.0437 -0.3942,0.13534 -0.2287,0.30997 -0.26947,0.72995 -0.4788,1.05345 -0.16592,0.25322 -0.45307,0.41911 -0.63354,0.66447 -0.12311,0.17026 -0.70056,1.39179 -0.71801,1.5817 -0.0163,0.13534 0.16795,0.25321 0.1545,0.38855 -0.0204,0.19646 -0.24949,0.32743 -0.2397,0.52695 0.0163,0.27504 0.33509,0.50773 0.30982,0.7819 -0.0163,0.13534 -0.30004,0.0437 -0.39421,0.13534 -0.1333,0.1397 -0.10558,0.38855 -0.2397,0.52607 -0.0942,0.10041 -0.31349,0.0436 -0.39421,0.13533 -0.22747,0.31434 -0.31879,0.70332 -0.47871,1.05433 -0.0807,0.17463 -0.19772,0.33616 -0.23971,0.52781 -0.5452,2.43259 0.008,0.0437 0.0705,1.3071 0.0163,0.30561 -0.12515,0.61077 -0.0844,0.91768 0.0367,0.27504 0.33551,0.50774 0.30982,0.78059 -0.008,0.13971 -0.28903,0.23575 -0.3942,0.13534 -0.20995,-0.19646 -0.12923,-0.5623 -0.30982,-0.78059 -0.1276,-0.1528 -0.38483,-0.13534 -0.54924,-0.25758 -0.25887,-0.18773 -0.38932,-0.60509 -0.70395,-0.64394 -0.19853,-0.0437 -0.15939,0.35362 -0.2397,0.5265 -0.0807,0.17463 -0.22136,0.3318 -0.23971,0.52738 -0.0163,0.13534 0.10355,0.26195 0.15491,0.39292 0.28903,0.72864 0.13086,1.17482 -0.16877,1.83448 -0.0807,0.17463 -0.25112,0.32743 -0.2397,0.52694 0.0204,0.35363 0.95409,2.0794 0.92938,2.34265 -0.0204,0.1921 -0.0856,0.41038 -0.2397,0.52695 -0.21729,0.1659 -0.50799,0.3056 -0.78854,0.27504 -0.14105,-0.0437 -0.0505,-0.29687 -0.15491,-0.39292 -0.42254,-0.38855 -1.22493,-0.37545 -1.64747,-0.76094 -0.10396,-0.096 -0.0505,-0.29687 -0.15491,-0.39292 -0.14798,-0.13534 -0.41985,-0.0961 -0.54912,-0.25758 -0.18182,-0.22265 -0.12923,-0.5623 -0.30982,-0.78059 -0.1276,-0.1528 -0.40073,-0.11788 -0.54912,-0.25758 -0.10599,-0.10041 -0.51267,-1.29182 -0.61968,-1.56162 -0.41312,-1.04123 -0.82629,-2.08245 -1.23929,-3.12324 -0.0518,-0.12661 -0.4644,-1.37521 -0.6196,-1.56163 -0.4048,-0.48765 -1.00329,-0.80024 -1.40822,-1.28832 -0.18018,-0.21829 -0.63497,-1.60004 -0.77459,-1.95149 -0.051,-0.1266 -0.10273,-0.25757 -0.15491,-0.39291 -0.051,-0.12661 -0.16796,-0.25321 -0.15491,-0.39292 0.794,-1.74847 -0.0408,0.43221 0.0848,-0.91767 0.0204,-0.1921 0.22177,-0.3318 0.23971,-0.52695 0.0285,-0.27067 -0.33551,-0.50773 -0.30942,-0.78059 0.0367,-0.40601 0.61956,-1.14295 0.71797,-1.58171 0.17448,-0.77841 0.27232,-1.57428 0.40823,-2.36186 z"
       id="path3884"
       inkscape:connector-curvature="0" />
    <path
       style="fill:#c8914b;fill-opacity:1;fill-rule:nonzero;stroke:#000000;stroke-width:2.06587362;stroke-linecap:round;stroke-linejoin:round;stroke-miterlimit:4;stroke-opacity:1;stroke-dasharray:none"
       d="m 140.78563,746.78901 c 2.6544,-1.2796 6.12635,-3.21842 7.7174,-4.30418 1.59089,-1.08619 3.13714,-2.06455 3.43588,-2.17501 0.30207,-0.10477 2.26711,-1.8742 4.37373,-3.92217 2.10711,-2.04709 4.85633,-4.56786 6.10939,-5.60123 5.86895,-4.83549 8.74372,-8.45992 9.36883,-11.80887 0.62555,-3.35288 0.0652,-4.93633 -2.0725,-5.85837 -0.86139,-0.37109 -1.73728,-0.61339 -1.94649,-0.53786 -0.34325,0.11787 -6.33527,-0.0873 -8.16049,-0.28377 -1.28828,-0.13971 -1.86109,-1.88469 -1.00447,-3.05994 0.71055,-0.97575 0.96232,-1.07266 3.14403,-1.20669 4.14826,-0.25758 7.63379,0.19646 10.25414,1.32936 2.54176,1.09536 2.54518,1.09886 3.66229,3.87764 0.9518,2.36579 1.06293,3.16953 0.74793,5.3764 -0.55943,3.92567 -2.04832,6.76252 -5.37706,10.24506 -1.63884,1.7153 -2.91212,3.14901 -2.82981,3.18655 0.16673,0.0786 7.83888,-3.71742 14.09808,-6.96858 5.88159,-3.05383 10.51178,-7.65618 13.32251,-13.24082 1.9502,-3.87415 2.54779,-6.49578 2.32676,-10.20752 -0.16714,-2.81328 -0.50623,-4.13828 -2.01164,-7.86923 -1.48991,-3.69079 -2.0173,-4.62855 -2.97799,-5.28909 -0.64182,-0.44093 -2.02855,-1.7345 -3.08142,-2.87527 -3.25377,-3.52401 -5.12036,-5.01186 -7.06946,-5.63659 -1.24854,-0.40165 -2.2473,-1.10017 -2.991,-2.09774 -0.61422,-0.8225 -1.79545,-2.00299 -2.62549,-2.62293 -0.82962,-0.61818 -2.35594,-1.88468 -3.3916,-2.81371 l -1.88261,-1.68867 -1.51462,1.12025 c -2.50539,1.85369 -7.08512,1.64152 -7.89481,-0.36672 -0.30697,-0.75833 -0.0616,-1.21586 1.24833,-2.33523 2.04254,-1.74542 2.00096,-1.65854 1.05547,-2.19509 -0.43648,-0.24885 -1.49036,-1.78864 -2.34265,-3.42492 -0.85238,-1.6354 -1.9118,-3.52445 -2.35554,-4.19677 -0.66562,-1.00936 -0.7154,-1.72447 -0.298,-4.09943 0.27925,-1.58214 0.40884,-3.1228 0.287,-3.42535 -0.12312,-0.30123 -0.0367,-1.37651 0.18956,-2.38718 0.22666,-1.0111 0.35915,-1.96633 0.29555,-2.1248 -0.0628,-0.1528 0.23807,-1.55464 0.67048,-3.10666 0.62384,-2.23874 0.8944,-2.69453 1.31193,-2.21168 0.4664,0.53961 0.58821,0.45317 1.07711,-0.76182 0.7728,-1.91699 1.1092,-1.87508 1.96476,0.24885 l 0.74585,1.85282 0.40999,-1.23158 c 0.33754,-1.01284 0.46171,-1.11107 0.70093,-0.54877 0.16021,0.37546 0.73227,0.74785 1.27095,0.82556 1.52624,0.22265 2.21926,2.49109 1.55054,5.07997 -0.75022,2.9019 -0.73359,4.94506 0.0559,6.90135 l 0.66053,1.63671 2.71807,3.69734 c 3.60061,-3.50787 3.82959,-20.12122 -1.99974,-26.99681 -1.54144,-5.09176 -5.17173,-5.76059 -8.32595,-6.49796 -2.80392,-0.65529 -3.69343,0.53218 -5.01833,6.70402 -1.83724,8.55771 -4.84258,17.56203 -6.93722,20.78568 -1.38535,2.13179 -2.56495,2.56269 -6.12137,2.23569 -2.31962,-0.21392 -3.60599,-0.0437 -7.34708,1.07441 -5.43475,1.59742 -7.85979,1.9266 -9.86369,1.34072 -3.86473,-1.12942 -12.8093,-0.10478 -13.7713,1.57166 -0.18182,0.3056 -1.78824,1.83011 -3.5755,3.37209 -5.33744,4.60585 -8.18735,7.5287 -8.87331,9.10255 -0.3563,0.8177 -0.87085,1.5996 -1.14324,1.73887 -0.26743,0.1528 0.54451,8.7e-4 1.81628,-0.3056 l 2.31212,-0.55619 0.74467,1.48958 c 1.12633,2.24835 0.73644,2.80935 -2.82658,4.06712 -2.921657,1.01983 -3.324343,1.04821 -7.730773,0.41911 -10.234655,-1.47431 -13.064707,-1.71617 -16.434827,-1.40096 -5.412575,0.50511 -5.719705,0.67581 -13.341712,7.45797 -5.254117,4.67439 -7.487356,8.09101 -7.871738,12.04113 -0.134936,1.37957 -0.126375,1.38699 1.457015,1.34726 1.482168,-0.0437 1.638546,0.0786 2.262264,1.63715 0.368117,0.92292 0.609614,1.99907 0.535787,2.39111 -0.08194,0.43221 0.125152,0.93471 0.524291,1.2796 0.832196,0.71511 0.79143,2.46751 -0.08357,3.61308 -0.352626,0.46058 -1.793294,1.35512 -3.201431,1.98553 -3.295395,1.47693 -3.636158,1.88993 -3.891434,4.77087 -0.419522,4.72329 0.105991,8.0085 2.077595,12.99155 1.57328,3.98373 2.027534,4.78615 3.227235,5.73962 1.594641,1.26781 3.231189,1.58651 4.978417,0.97138 1.473444,-0.47718 4.419109,-3.02545 5.842941,-4.95729 0.907042,-1.22983 0.951314,-1.60877 0.360778,-3.08526 -0.820047,-2.05059 -0.904636,-3.9571 -0.185485,-4.21381 0.279247,-0.13097 1.45779,0.25322 2.588352,0.79675 1.739971,0.83604 2.219868,1.31889 3.119776,3.13591 1.5531,3.1359 2.71122,3.98722 6.009632,4.4203 2.370947,0.30997 3.61496,0.17463 7.288501,-0.79544 2.437313,-0.64132 6.704569,-2.11345 9.487985,-3.25771 5.208871,-2.14881 6.440451,-3.04466 8.493341,-6.16485 0.43835,-0.66621 1.24629,-1.24903 1.96504,-1.41624 0.9838,-0.24011 1.33398,-0.0698 1.81041,0.80635 0.46192,0.85481 0.37994,1.53281 -0.3779,3.12325 -0.96652,2.02744 -1.25196,2.38805 -4.05519,5.11969 -0.81935,0.79805 -2.7369,2.73207 -4.26155,4.29675 -1.52448,1.56555 -4.018214,3.87197 -5.541474,5.12537 -2.58937,2.13135 -3.188956,2.42953 -9.217585,4.58707 l -6.449048,2.30467 -3.259237,-0.64831 c -1.792641,-0.35799 -3.741905,-0.81508 -4.332114,-1.02114 -1.005084,-0.34926 -8.926639,-0.95479 -10.972355,-0.83866 -2.601886,0.14844 -2.771064,9.11608 -0.214021,11.35527 3.187285,2.79232 9.203888,4.5194 16.40947,4.71193 3.261805,0.0873 4.506593,-0.12224 9.926016,-1.68779 6.308324,-1.82007 7.559512,-2.38194 14.449938,-6.47831 6.45691,-3.83879 7.14039,-4.41463 9.53193,-8.03294 1.26892,-1.92005 3.13975,-5.08128 4.15767,-7.02447 1.01752,-1.94406 1.97434,-3.57946 2.12619,-3.63316 0.15124,-0.0567 0.55499,-1.01503 0.89591,-2.1344 0.51761,-1.69915 0.45931,-2.72247 -0.35262,-6.19367 -1.98135,-8.47082 -2.32019,-9.53475 -3.38496,-10.62793 -1.55563,-1.59699 -5.86263,-4.01124 -7.95568,-4.46003 -1.74266,-0.37546 -7.44932,-0.37546 -10.451239,8.7e-4 -0.710468,0.0917 -1.883264,0 -2.607593,-0.17463 -2.588677,-0.66228 -9.907997,-0.10041 -17.389076,1.3298 -2.441145,0.46801 -4.606428,-0.32306 -4.805325,-1.75109 -0.357109,-2.56924 -0.304929,-2.60678 7.841817,-5.64402 4.134644,-1.53717 7.467014,-2.92198 7.406885,-3.07348 -0.05789,-0.14843 0.227066,-0.53436 0.637986,-0.85131 0.971942,-0.75222 1.691338,-0.19646 2.582971,1.98902 1.212664,2.97612 2.342533,3.59649 6.666208,3.66198 2.109306,0.0437 4.322326,0.0829 4.917756,0.11351 0.59416,0.0437 1.41605,-0.0655 1.82375,-0.20519 1.31596,-0.45928 6.73351,1.15954 9.5795,2.87833 4.98559,3.01017 5.81339,3.97674 7.29482,8.51448 1.7182,5.26158 2.83352,10.76939 2.67009,13.18276 -0.20587,3.03375 -4.1556,10.79646 -9.02248,17.73055 -2.16015,3.0774 -2.89165,3.71043 -7.60028,6.57304 -3.29674,2.00606 -4.57447,3.15163 -2.84974,2.55745 0.58735,-0.1659 2.9784,-0.41038 5.34054,-0.47979 6.50922,-0.18337 10.94806,-0.7365 13.71121,-1.71443 1.37536,-0.47979 4.05279,-1.1412 5.95489,-1.45684 3.97822,-0.65835 3.54769,-0.50293 9.86103,-3.56331 l 0,0 z m -10.0757,-47.04207 c -4.40044,-0.3056 -6.62582,-1.3752 -9.50764,-4.56219 -2.1383,-2.36404 -2.95561,-2.74255 -5.26125,-2.4352 -5.17993,0.69153 -10.06585,-6.1356 -8.24381,-11.51811 0.61666,-1.82051 1.4798,-2.28459 3.1797,-1.70962 l 1.19,0.40601 -0.21769,2.45092 c -0.26416,2.97525 0.30004,4.52596 2.02525,5.56369 1.13525,0.68236 1.47642,0.68193 2.64962,0 0.74031,-0.43657 1.52469,-1.11937 1.74262,-1.52233 0.21769,-0.40165 1.22151,-1.38132 2.23063,-2.17282 1.00949,-0.79195 1.87255,-1.65331 1.91869,-1.9135 0.0448,-0.26631 0.64839,-1.21673 1.33839,-2.12524 0.68984,-0.90895 2.02647,-3.14202 2.97,-4.96297 2.28546,-4.40895 5.10149,-6.54423 10.90628,-8.26913 2.15325,-0.63608 4.27039,-1.15037 4.70797,-1.13596 0.5174,0.0437 1.15087,0.64918 1.81107,1.80567 0.5587,0.97836 1.7341,2.4531 2.61249,3.27648 1.4129,1.32456 1.94062,2.30729 4.57821,8.52845 l 2.98134,7.03189 -1.13028,2.12742 c -1.47984,2.78315 -2.64094,3.84752 -7.513,6.88126 -5.7226,3.56244 -9.51444,4.64165 -14.96892,4.26139 l 0,0 z m -58.309967,-2.61813 c -0.753965,-1.31103 0.02446,-2.9735 1.490688,-3.18785 0.655068,-0.10042 1.858315,-0.72821 2.67127,-1.40708 0.813362,-0.678 3.256423,-1.97069 5.428391,-2.87396 4.8306,-1.9947 6.113708,-1.99252 6.949124,0.0786 l 0.549729,1.36429 -4.802961,1.81266 c -2.642733,0.99407 -5.173441,2.17762 -5.635849,2.60546 -0.458943,0.43221 -2.026964,1.17701 -3.485202,1.6485 -2.439597,0.78496 -2.693813,0.78322 -3.164578,-0.0437 z"
       id="path3948"
       inkscape:connector-curvature="0"
       sodipodi:nodetypes="cccccccccccccccccccccccccccccsccccccccccccccccccccccccccccccccccccccccccccccccccccscccccccccccccccccccccccccccccccccccccccccccccccccccccccccccccccccccsccccccccccccccccc" />
    <path
       style="fill:#ff0000;fill-opacity:1;fill-rule:nonzero;stroke:#000000;stroke-width:5.2541194;stroke-linecap:round;stroke-linejoin:round;stroke-miterlimit:4;stroke-opacity:1;stroke-dasharray:none"
       d="m 132.89245,686.46813 c -3.12377,-1.07964 -5.11914,-0.64918 -8.699,1.8777 -3.8788,2.73906 -2.48285,6.63679 2.86548,8.00152 3.58133,0.91331 3.59963,0.90938 6.2985,-1.48348 3.06303,-2.71636 2.81138,-7.26196 -0.46498,-8.39574 z"
       id="path3956"
       inkscape:connector-curvature="0" />
    <path
       style="fill:#c8914b;fill-opacity:1;fill-rule:nonzero;stroke:#000000;stroke-width:4.63301229;stroke-linecap:round;stroke-linejoin:round;stroke-miterlimit:4;stroke-opacity:1;stroke-dasharray:none"
       d="m 145.43026,653.14756 c 0.15328,-1.02944 0.0807,-2.69278 -0.16225,-3.69777 -0.56224,-2.32694 -0.84565,-5.66672 -0.70704,-8.33244 0.13656,-2.62162 -1.65314,-8.23377 -2.99626,-9.39418 -0.50232,-0.4322 -1.5787,-0.82119 -2.39223,-0.86005 -1.33724,-0.0655 -1.57303,0.0655 -2.45504,1.34552 -0.53656,0.77885 -1.74735,2.25796 -2.69031,3.28696 -2.0385,2.22434 -3.67701,5.61128 -3.80334,7.86399 -0.0506,0.89279 -0.50016,3.09662 -1.00023,4.89661 -0.49975,1.79999 -1.1858,4.59668 -1.52445,6.21462 l -0.61564,2.94119 1.77862,0.22265 c 3.08141,0.37982 5.69145,0.0568 10.56009,-1.30797 2.59768,-0.73039 4.94988,-1.32064 5.22615,-1.3154 0.27558,0 0.62816,-0.83167 0.78177,-1.86111 l 0,0 z"
       id="path3975"
       inkscape:connector-curvature="0" />
    <path
       style="fill:#ffffff;fill-opacity:1;fill-rule:nonzero;stroke:#000000;stroke-width:0;stroke-linecap:round;stroke-linejoin:round;stroke-miterlimit:4;stroke-opacity:1;stroke-dasharray:none"
       d="m 144.73883,691.88295 c 1.53329,-0.71074 -0.40277,0.15717 0.58234,-0.27941 1.59815,-0.70855 3.79824,-2.84471 4.40023,-3.85668 l 0.67488,-1.13422 -1.9365,-4.87958 c -2.08787,-5.26158 -2.28803,-5.57547 -5.0635,-7.93995 -0.50847,-0.43221 -1.02216,-1.15867 -1.27911,-1.80611 l -0.42943,-1.08183 -2.32451,0.80548 c -1.75188,0.60771 -2.84069,1.15081 -4.41948,2.20513 -2.70306,1.8048 -2.87122,1.9934 -4.11593,4.62244 -0.57614,1.21673 -1.49652,2.86217 -2.04535,3.65717 l -0.99787,1.44506 1.07704,-0.20956 c 2.7784,-0.54397 6.519,0.54092 8.09306,2.34702 1.60063,1.8371 1.21935,4.27493 0.54508,6.77081 l -1.74385,3.85669 4.12853,-1.43545 c 0.49853,-0.19209 1.90238,-0.81115 3.43567,-1.52146 z"
       id="path3981"
       inkscape:connector-curvature="0"
       sodipodi:nodetypes="ccccsccccccccccccccc" />
    <path
       style="fill:#c8914b;fill-opacity:1;stroke:#000000;stroke-width:0;stroke-linecap:butt;stroke-linejoin:miter;stroke-miterlimit:4;stroke-opacity:1;stroke-dasharray:none"
       d="m 189.55694,696.81579 c 0.44838,-0.19209 1.45554,1.44025 1.93882,1.77773 0.15043,0.10477 0.33469,0.1528 0.48463,0.25757 0.3567,0.24885 0.61279,0.76706 0.96945,1.01591 0.15043,0.10478 0.35671,0.11787 0.48463,0.25758 0.58862,0.61688 -0.0722,0.37108 0.48475,0.76182 0.15042,0.10478 0.33469,0.14843 0.48466,0.25758 0.18997,0.13097 0.29474,0.37545 0.48467,0.50817 0.15043,0.10477 0.33469,0.1528 0.48467,0.25758 0.18996,0.13097 0.28047,0.40164 0.48474,0.50817 0.0726,0.0437 0.1704,-0.0437 0.24256,0 0.20424,0.10477 0.26783,0.4322 0.48471,0.50817 0.15328,0.0568 0.33142,-0.0568 0.48466,0 0.10844,0.0437 0.14758,0.19209 0.24215,0.25321 0.15084,0.10478 0.33469,0.14843 0.48475,0.25758 0.18997,0.13097 0.26783,0.43221 0.48471,0.50817 0.57586,0.20082 0.44015,-0.29687 0.96937,0.25758 0.0571,0.0611 -0.0367,0.17899 0,0.25758 0.10762,0.22701 0.57994,0.53131 0.72702,0.76182 0.10029,0.15716 0.14187,0.34925 0.24256,0.5086 0.0636,0.096 0.17937,0.1528 0.24256,0.25322 0.70561,1.10976 -0.10763,-0.0873 0.24215,1.01634 0.0367,0.10914 0.19119,0.14843 0.24255,0.25758 0.0367,0.0786 -0.0367,0.17899 0,0.25757 0.0518,0.10915 0.19119,0.14844 0.24256,0.25322 0.0367,0.083 -0.0367,0.18336 0,0.25757 0.0518,0.10478 0.19119,0.14844 0.24256,0.25322 0.0367,0.0829 -0.0367,0.18336 0,0.25758 0.0326,0.0655 0.66265,0.7282 0.72698,0.76269 0.14431,0.0786 0.33998,-0.0829 0.4847,0 0.10233,0.0568 0.14024,0.19646 0.24256,0.25321 0.0726,0.0437 0.16551,-0.0437 0.24256,0 1.75538,0.61339 -0.38198,-0.0742 0.72702,0.50861 0.0721,0.0437 0.16999,-0.0437 0.24255,0 0.20424,0.10478 0.28047,0.40165 0.48479,0.50817 0.0722,0.0437 0.17,-0.0437 0.24215,0 0.10233,0.0568 0.16144,0.1659 0.24256,0.25321 0.0807,0.0917 0.17937,0.1528 0.24256,0.25758 0.10028,0.15717 0.11496,0.37545 0.24215,0.50817 0.0571,0.0611 0.18507,-0.0611 0.24255,0 0.0571,0.0611 -0.0367,0.179 0,0.25758 0.55157,0.57802 0.0644,-0.0568 0.24215,0.50773 0.58516,1.8406 -0.0697,-0.40164 0.48467,0.76226 0.097,0.20082 -0.097,0.55881 0,0.76182 0.0514,0.10914 0.19119,0.14844 0.24256,0.25758 0.0762,0.15717 -0.0762,1.10977 0,1.26999 0.0518,0.10478 0.19119,0.14844 0.24215,0.25758 0.0367,0.0786 -0.0285,0.17463 0,0.25758 0.0571,0.18336 0.18507,0.32306 0.24255,0.50817 0.0285,0.0873 -0.0367,0.18336 0,0.25758 0.051,0.10477 0.1912,0.14843 0.24256,0.25757 0.0966,0.20083 -0.097,0.55838 0,0.76182 0.0518,0.10478 0.19119,0.14844 0.24256,0.25758 0.0762,0.15717 -0.0762,1.10977 0,1.27043 0.0518,0.10041 0.20627,0.1397 0.24256,0.25321 0.0465,0.14844 0,1.03206 0,1.26999 0,0.25758 0.0408,1.65549 0,1.7786 -0.0367,0.10915 -0.20669,0.13971 -0.24256,0.25758 -0.0518,0.15717 0,0.33616 0,0.50817 0,0.25758 0.0477,0.51341 0,0.76226 0.14594,0.45971 -0.39258,0.47324 -0.48467,0.76226 -0.0514,0.15716 0.0514,0.34489 0,0.50773 -0.0721,0.23575 -0.35751,0.3056 -0.48466,0.50861 -0.17774,0.2794 -0.56005,1.34901 -0.72706,1.52407 -0.1276,0.13098 -0.35671,0.11788 -0.48471,0.25758 -0.1276,0.13097 -0.14227,0.34926 -0.24256,0.50817 -0.064,0.096 -0.17937,0.1528 -0.24256,0.25758 -0.10028,0.15717 -0.11455,0.37545 -0.24255,0.50817 -0.1276,0.13098 -0.33999,0.13971 -0.48471,0.25322 -0.18263,0.14406 -0.30208,0.36672 -0.48463,0.50773 -0.14431,0.10914 -0.33998,0.1397 -0.48474,0.25758 -0.27354,0.21828 -0.44182,0.56318 -0.72702,0.76182 -0.15043,0.10478 -0.32328,0.1659 -0.48471,0.25758 -0.16143,0.16589 -0.30208,0.36672 -0.48462,0.50817 -0.14432,0.10914 -0.33469,0.1528 -0.48475,0.25758 -0.28536,0.19645 -0.45283,0.54702 -0.72702,0.76269 -0.14431,0.10914 -0.3298,0.15717 -0.48467,0.25321 -0.24989,0.1528 -0.494,0.32307 -0.72706,0.50817 -0.18263,0.14407 -0.29433,0.37546 -0.48467,0.5073 -0.15042,0.10478 -0.33998,0.1397 -0.48466,0.25758 -0.45238,0.35799 -0.75939,0.91418 -1.21177,1.27043 -0.14431,0.10914 -0.33469,0.1528 -0.48462,0.25321 -0.0954,0.0655 -0.15084,0.18336 -0.24256,0.25758 -0.23277,0.18772 -0.494,0.32306 -0.72702,0.50817 -0.32327,0.25758 -0.32327,0.50817 -0.72706,0.76182 -0.21932,0.13534 -0.50794,0.11351 -0.72702,0.25758 -0.19568,0.12224 -0.30208,0.36672 -0.48467,0.50773 -0.14431,0.10914 -0.3567,0.11788 -0.48466,0.25758 -0.1276,0.13097 -0.0978,0.39728 -0.24256,0.50773 -1.2593,0.99015 -0.32735,0.0437 -0.96941,0.25758 -0.87855,0.30124 -0.17204,0.11788 -0.72707,0.50905 -0.15042,0.10477 -0.32327,0.16589 -0.48462,0.25757 -0.20587,0.10478 -1.34275,0.64526 -1.45408,0.76226 -0.1276,0.13097 -0.0978,0.39728 -0.24256,0.50774 -0.29351,0.10041 -0.9264,0.28377 -1.21168,0.50817 -0.18264,0.14407 -0.30167,0.36672 -0.48463,0.5086 -0.14431,0.10915 -0.32327,0.1659 -0.48479,0.25758 -1.13659,0.59549 0.28577,-0.11787 -1.21168,0.5073 -0.33591,0.1397 -0.63391,0.37109 -0.96938,0.50904 -0.23766,0.096 -0.48984,0.15281 -0.72706,0.25322 -0.16755,0.0698 -0.31675,0.18772 -0.48466,0.25758 -2.43948,1.02245 0.51459,-0.20083 -1.21169,0.25757 -0.35059,0.0873 -0.61887,0.41911 -0.96937,0.50774 -0.31349,0.0873 -0.65593,-0.0873 -0.96938,0 -0.17529,0.0524 -0.30941,0.20955 -0.4847,0.25758 -0.15695,0.0437 -0.32328,0 -0.48471,0 -0.16143,0 -0.32327,0 -0.48462,0 -0.0807,0 -0.16551,-0.0437 -0.24256,0 -0.17081,0.0611 -0.30942,0.20955 -0.48463,0.25321 -0.15695,0.0437 -0.33142,-0.0568 -0.48475,0 -0.10843,0.0437 -0.13982,0.20082 -0.24214,0.25758 -0.14432,0.0786 -0.33143,-0.0568 -0.48479,0 -0.17081,0.0611 -0.32328,0.16589 -0.48463,0.25321 -0.16143,0.0917 -0.33469,0.14843 -0.48466,0.25758 -0.095,0.0655 -0.14024,0.19646 -0.24256,0.25758 -0.0726,0.0436 -0.17,-0.0437 -0.24256,0 -0.10232,0.0567 -0.14798,0.19209 -0.24215,0.25321 -0.15083,0.10041 -0.32327,0.1659 -0.48471,0.25758 -0.16143,0.0873 -0.31349,0.19645 -0.4847,0.25757 -0.15328,0.0568 -0.33999,-0.0829 -0.48463,0 -0.10232,0.0568 -0.14798,0.1921 -0.24256,0.25758 -0.15001,0.10041 -0.32327,0.1659 -0.48466,0.25758 -0.16143,0.083 -0.31349,0.19209 -0.48475,0.25321 -0.0762,0.0437 -0.16999,-0.0437 -0.24256,0 -0.10191,0.0524 -0.14023,0.19646 -0.24255,0.25758 -0.0726,0.0437 -0.16144,0 -0.24256,0 -0.0807,0 -0.16143,0 -0.24256,0 -0.7801,0 0.41365,-0.0611 -0.48479,0.25321 -0.15328,0.0568 -0.32327,0 -0.48462,0 -0.16144,0 -0.32328,0 -0.48463,0 -0.21647,0 -1.13455,0.0437 -1.21181,0 -0.10232,-0.0567 -0.19119,-0.14843 -0.24255,-0.25321 -0.0367,-0.083 0.0367,-0.17899 0,-0.25758 -0.0518,-0.10477 -0.1912,-0.14843 -0.24256,-0.25321 -0.0367,-0.0829 0,-0.1659 0,-0.25758 0,-0.1659 0.0514,-0.34489 0,-0.50861 -0.0367,-0.1135 -0.19119,-0.14843 -0.24215,-0.25321 -0.0734,-0.1528 0.0734,-1.36996 0,-1.52451 -0.0514,-0.10478 -0.19119,-0.14844 -0.24256,-0.25321 -0.0762,-0.15717 0.0762,-0.85612 0,-1.01635 -0.0518,-0.10477 -0.19119,-0.14843 -0.24256,-0.25757 -0.0326,-0.0699 0,-0.88363 0,-1.01635 0,-0.096 -0.0518,-1.16172 0,-1.27042 0.0518,-0.10478 0.1912,-0.14844 0.24256,-0.25758 0.0367,-0.0786 0,-0.1659 0,-0.25321 0.0807,-0.1659 0.14187,-0.34926 0.24256,-0.50818 0.0636,-0.10041 0.20668,-0.1397 0.24215,-0.25321 0.0514,-0.15716 -0.0518,-0.34489 0,-0.50773 0.0367,-0.11351 0.61789,-0.64831 0.72702,-0.76226 0.0807,-0.0873 0.16143,-0.1659 0.24256,-0.25321 0.0807,-0.0873 0.19119,-0.14844 0.24255,-0.25758 0.0367,-0.0786 -0.0367,-0.18336 0,-0.25321 0.11945,-0.25321 0.85022,-0.76662 0.96942,-1.01678 0.0367,-0.0786 -0.0367,-0.18336 0,-0.25758 0.0514,-0.10478 0.19119,-0.14843 0.24255,-0.25758 0.0367,-0.0829 0.0571,-0.30996 0,-0.25321 -0.12759,0.13097 -0.36974,0.64133 -0.24255,0.50861 0.16143,-0.25321 0.32327,-0.50861 0.48462,-0.7627 0,-0.0917 -0.0367,-0.18336 0,-0.25757 0.0518,-0.10478 0.19119,-0.14844 0.24256,-0.25758 0.0367,-0.0786 -0.0367,-0.179 0,-0.25321 0.10232,-0.21392 0.35752,-0.30561 0.48467,-0.50818 0.10028,-0.15716 0.14186,-0.34925 0.24255,-0.50773 0.0669,-0.10478 0.88271,-0.97094 0.96942,-1.01634 0.0722,-0.0437 0.16999,0.0437 0.24255,0 0.0461,-0.0437 0.94622,-0.96701 0.96938,-1.01634 0.3567,-0.74785 -0.56131,0.33179 0.24256,-0.50861 0.0807,-0.0829 0.14023,-0.19646 0.24214,-0.25321 0.33469,-0.179 0.21688,0.3056 0.48467,-0.25758 0.0367,-0.0786 -0.0367,-0.179 0,-0.25321 0.10232,-0.21393 0.38239,-0.29251 0.48463,-0.50861 0.0367,-0.0742 -0.0367,-0.18336 0,-0.25758 0.11944,-0.24885 0.85017,-0.76575 0.96945,-1.01591 0.0367,-0.0786 -0.0367,-0.18336 0,-0.25321 0.0518,-0.10041 0.17937,-0.1528 0.24256,-0.25758 0.10028,-0.1528 0.14227,-0.34926 0.24256,-0.50817 0.14716,-0.23575 0.61968,-0.53655 0.72706,-0.76225 0.0367,-0.0786 -0.0367,-0.18337 0,-0.25758 0.0518,-0.10478 0.17937,-0.1528 0.24255,-0.25322 0.10029,-0.15716 0.16144,-0.33616 0.24256,-0.50817 0.0807,-0.16589 0.18508,-0.32743 0.24256,-0.50817 0.0285,-0.0873 -0.0367,-0.17899 0,-0.25758 0.0518,-0.10914 0.20627,-0.1397 0.24256,-0.25321 0.0514,-0.15716 -0.0408,-0.34053 0,-0.50861 0.29229,-1.22589 0.11536,0 0.48462,-0.76138 0.0718,-0.14843 -0.0554,-0.58806 0,-0.76269 0.0571,-0.18336 0.19853,-0.32307 0.24256,-0.50774 0.10517,-0.44181 -0.10518,-1.08314 0,-1.52495 0.0436,-0.18772 0.18548,-0.32306 0.24256,-0.50817 0.0285,-0.0829 0,-0.1659 0,-0.25321 0,-0.29687 -0.0481,-1.37346 0,-1.52451 0.0367,-0.11351 0.19119,-0.14844 0.24255,-0.25758 0.0367,-0.0786 0,-0.1659 0,-0.25321 0,-0.20956 -0.0522,-1.10584 0,-1.27087 0.0571,-0.18336 0.19853,-0.32306 0.24256,-0.5073 0.0408,-0.16153 0,-0.33616 0,-0.5086 0,-0.59287 0,-1.18617 0,-1.77817 0,-0.0873 0,-0.16589 0,-0.25758 0,-0.0829 -0.0571,-0.19209 0,-0.25321 0.0571,-0.0611 0.18508,0.0611 0.24256,0 0.0571,-0.0611 0,-0.1659 0,-0.25758 0,-0.16589 0,-0.33616 0,-0.50817 0,-0.84695 0,-1.6939 0,-2.54042 0,-0.24011 0.0461,-1.12505 0,-1.27042 -0.0367,-0.10915 -0.19119,-0.14844 -0.24256,-0.25758 -0.0726,-0.1528 0.0514,-0.34489 0,-0.50861 -0.0571,-0.18336 -0.18549,-0.32743 -0.24256,-0.50817 -0.0285,-0.0829 0.0285,-0.17026 0,-0.25321 -0.0571,-0.18336 -0.18507,-0.32743 -0.24255,-0.50774 -0.0285,-0.0829 0.0367,-0.17899 0,-0.25321 -0.0518,-0.10478 -0.1912,-0.14844 -0.24256,-0.25758 -0.097,-0.20082 0.097,-0.55925 0,-0.76226 -0.10232,-0.21392 -0.38239,-0.2925 -0.48475,-0.5086 -0.0644,-0.13534 0.0648,-0.37109 0,-0.50774 -0.0514,-0.10477 -0.19119,-0.14843 -0.24215,-0.25321 -0.0722,-0.14843 0.0518,-0.34489 0,-0.50817 -0.0807,-0.1659 -0.16143,-0.33616 -0.24256,-0.50774 0,-0.16589 0.0514,-0.34489 0,-0.50904 -0.0367,-0.10914 -0.19119,-0.14843 -0.24255,-0.25758 -0.0367,-0.0786 0,-0.64744 0,-0.76182 0,-0.18336 -0.0326,-1.45859 0,-1.52451 0.0518,-0.10478 0.19119,-0.14844 0.24255,-0.25321 0.0367,-0.083 -0.0367,-0.18336 0,-0.25758 0.0326,-0.0655 0.66274,-0.72777 0.72702,-0.76182 0.14431,-0.0786 0.33143,0.0568 0.48471,0 0.17081,-0.0611 0.31349,-0.19646 0.48471,-0.25321 0.2185,-0.0742 0.50896,0.0829 0.72702,0 0.10843,-0.0437 0.14757,-0.1921 0.24215,-0.25758 0.15042,-0.10478 0.33468,-0.14844 0.48474,-0.25322 0.095,-0.0655 0.13983,-0.19645 0.24256,-0.25757 0.14431,-0.0786 0.33999,0.0829 0.48467,0 0.10232,-0.0568 0.16143,-0.1659 0.24255,-0.25322 0.16144,0 0.33143,0.0568 0.48471,0 0.10844,-0.0437 0.14024,-0.20082 0.24256,-0.25757 0.14431,-0.0829 0.33999,0.0786 0.48471,0 0.10232,-0.0568 0.16143,-0.1659 0.24255,-0.25758 0.16144,0 0.32817,0.0437 0.48471,0 1.17027,-0.30124 -0.008,-0.11788 0.72702,-0.50861 0.19405,-0.10478 0.53314,0.10041 0.72702,0 0.10232,-0.0567 0.14023,-0.19646 0.24256,-0.25758 0.0546,-0.0437 0.91185,0 0.96941,0 0.0819,0 0.83823,-0.048 0.96946,0 0.41263,0.14407 1.64665,0.50817 1.21168,0.50817 -0.51096,0 -1.29256,-1.01547 -1.45408,-0.50817 -0.16143,0.50817 0.96937,0.33616 1.45408,0.50817 z"
       id="path3983"
       inkscape:connector-curvature="0" />
    <path
       style="fill:#c8914b;fill-opacity:1;stroke:#000000;stroke-width:0;stroke-linecap:butt;stroke-linejoin:miter;stroke-miterlimit:4;stroke-opacity:1;stroke-dasharray:none"
       d="m 176.52684,727.95131 c -0.36649,0.0699 -1.09538,0.59811 -1.46554,0.77405 -0.11822,0.0436 -0.25682,0.12224 -0.37341,0.16153 -0.27354,0.12224 -0.45462,0.27941 -0.72796,0.40601 -0.11863,0.0437 -0.28414,0.0873 -0.37342,0.16153 -0.44198,0.25322 0.073,0.0437 -0.35344,0.24448 -0.11822,0.0437 -0.25682,0.11788 -0.37341,0.16154 -0.14146,0.0873 -0.21728,0.1397 -0.36526,0.19645 -0.11823,0.0437 -0.25683,0.12225 -0.37342,0.16154 -0.14146,0.0873 -0.20587,0.13533 -0.36282,0.20519 -0.0644,0 -0.13656,0.0437 -0.19282,0.0611 -0.16225,0.0524 -0.19486,0.13533 -0.36526,0.19645 -0.12189,0.0437 -0.26254,0.0829 -0.38524,0.12224 -0.0856,0.0437 -0.11659,0.0655 -0.181,0.10042 -0.11822,0.0437 -0.25683,0.12224 -0.37342,0.16153 -0.14146,0.0873 -0.19527,0.1397 -0.36281,0.20519 -0.44876,0.18336 -0.36364,0.0568 -0.7587,0.28377 -0.0558,0.003 0.0408,0.0437 0.008,0.048 -0.0697,0.0742 -0.4375,0.23575 -0.54593,0.3056 -0.0652,0.0699 -0.0938,0.10042 -0.1806,0.13098 -0.0595,0 -0.1333,0.0786 -0.18059,0.10041 -0.51345,0.35799 0.0856,-0.0437 -0.14961,0.22702 -0.0204,0 -0.14227,0.0829 -0.181,0.10477 -0.0204,0 0.0408,0.0437 0.008,0.048 -0.0534,-10e-4 -0.14227,0.0829 -0.18059,0.10041 -0.0204,0 0.0367,0.0437 0.008,0.048 -0.0534,-8.7e-4 -0.14227,0.0917 -0.181,0.10041 -0.0204,0 0.0408,0.0437 0.008,0.048 -0.0163,0 -0.49648,0.2794 -0.54589,0.3056 -0.11537,0.0437 -0.27028,0.0873 -0.38524,0.12224 -0.0828,0.0437 -0.11251,0.0611 -0.181,0.10041 -0.0644,0 -0.13168,0.0437 -0.19282,0.0655 -1.37002,0.53567 0.30248,-0.10042 -0.55536,0.26194 -0.0644,0 -0.13616,0.0437 -0.19282,0.0611 -0.16225,0.0568 -0.20587,0.13534 -0.36282,0.20519 -0.0644,0 -0.13412,0.048 -0.19282,0.0611 -0.0828,0.0437 -0.12352,0.0698 -0.18059,0.10041 -0.0685,0 -0.13331,0.0829 -0.181,0.10478 -0.0656,0.0699 -0.0807,0.0917 -0.18019,0.12661 -0.0558,0.002 -0.14717,0.048 -0.19282,0.0655 -0.0563,0.002 0.0367,0.0437 0.008,0.048 -0.41467,0.23139 -0.0595,0 -0.18059,0.12661 -0.38035,0.45535 0.0326,-0.0917 -0.35344,0.24448 -0.0632,0.0655 0.0991,0.0655 0.0326,0.12224 -0.0526,-10e-4 -0.14227,0.0873 -0.181,0.10041 -0.051,0.0568 0.11007,0.16154 0.0546,0.20956 -0.0534,-8.7e-4 -0.14227,0.0829 -0.18018,0.10478 -0.0204,0 0.0326,0.0437 0.008,0.048 -0.0428,0.048 -0.14105,0.0873 -0.18018,0.12661 -0.0163,0 0.0408,0.0437 0.008,0.048 -0.0526,-0.001 -0.14187,0.0873 -0.18059,0.10041 -0.064,0.0655 0.0991,0.0655 0.0326,0.12224 -0.0534,-10e-4 -0.14187,0.0829 -0.181,0.10478 -0.051,0.0567 0.11047,0.16153 0.0546,0.20955 -0.0534,-8.7e-4 -0.15532,0.0917 -0.1806,0.10478 -0.0367,0.0437 0.044,0.1659 0.0546,0.20956 0.008,0.048 0.0408,0.28377 0.0746,0.28814 0.0204,0 0.17407,0 0.20465,0 0.0497,0.0437 0.008,0.0568 0.0245,0.0917 0.008,0.048 -0.0163,0.0917 0.0326,0.12224 -0.10069,0.10477 0.33224,0 0.41748,0 0.0497,0.0437 -0.0204,0.0786 0.0245,0.0873 0.0685,0 0.29637,-0.0437 0.40799,-0.0437 0.15368,0.003 0.50313,0.0829 0.643,0.0655 0.1117,0 0.28414,-0.0917 0.39584,-0.0786 0.11169,0 0.12882,0.0436 0.21565,0.0436 0.0591,0 0.15165,0 0.20464,0 0.0893,0 0.10762,0.0437 0.21565,0.0437 0.11211,0 0.28129,-0.048 0.39747,-0.0786 0.15654,0 0.25438,0 0.40803,-0.0437 0.11537,-0.0437 0.28128,-0.048 0.39747,-0.0786 0.22788,-0.0437 0.37545,0 0.61116,-0.0568 0.11822,-0.0437 0.26661,-0.0437 0.39747,-0.0786 0.13697,-0.002 0.25438,0 0.40798,-0.0437 0.11537,-0.0437 0.27558,-0.048 0.39747,-0.0786 0.23644,-0.0437 0.38361,-0.0437 0.61092,-0.0568 0.11537,-0.0436 0.27272,-0.0436 0.39747,-0.0742 0.20994,-0.0437 0.40766,-0.0698 0.60072,-0.10041 0.15654,0 0.25194,0 0.40799,-0.0437 0.11822,-0.0437 0.28128,-0.048 0.39747,-0.0786 0.37545,-0.0568 0.64292,-0.0437 1.01817,-0.0917 0.11536,-0.0436 0.27557,-0.048 0.39746,-0.0786 0.0762,-0.0437 0.12923,4.4e-4 0.20465,0 0.19608,0 0.40766,-0.0698 0.60068,-0.096 0.26824,-0.0437 0.27884,0.002 0.61088,-0.0568 0.18589,0 0.40562,-0.12224 0.59001,-0.1397 0.16551,0 0.25438,0 0.40802,-0.0437 0.11537,-0.0437 0.29474,-0.0524 0.39747,-0.0786 0.1117,0 0.0938,0.0437 0.21565,0.0437 1.04345,-0.1528 0.2605,-0.0786 0.78202,-0.19645 0.71197,-0.1659 0.13738,-0.0437 0.60068,-0.096 0.11822,-0.0437 0.26661,-0.0437 0.39747,-0.0786 0.16266,-0.0524 1.09554,-0.23139 1.18914,-0.24012 0.1117,0 0.0938,0.0437 0.21565,0.0437 0.23237,-0.0742 0.74892,-0.18773 0.98503,-0.22265 0.15614,0 0.25438,0 0.40803,-0.0437 0.11537,-0.0437 0.26701,-0.0437 0.39747,-0.0742 0.92942,-0.18772 -0.23685,0.0437 0.98498,-0.22265 0.27599,-0.048 0.52026,-0.10041 0.79233,-0.15717 0.18711,-0.0655 0.39869,-0.0917 0.59004,-0.1397 0.13249,-0.048 0.26295,-0.0437 0.39747,-0.0786 1.98404,-0.43832 -0.41956,0.0917 0.97488,-0.26195 0.27843,-0.0873 0.50986,-0.0873 0.79233,-0.15716 0.24867,-0.0786 0.52241,-0.16154 0.771,-0.24448 0.13861,-0.048 0.25683,-0.0437 0.39747,-0.0786 0.12393,-0.0437 0.25642,-0.0829 0.38524,-0.12224 0.12923,-0.0437 0.25642,-0.0829 0.38524,-0.12224 0.0685,0 0.13167,-0.0437 0.19282,-0.0655 0.13697,-0.0437 0.25682,-0.0437 0.39747,-0.0742 0.12393,-0.0437 0.26253,-0.083 0.38523,-0.11788 0.086,-0.0437 0.12108,0 0.20465,0 0.11537,-0.0437 0.26294,-0.083 0.38524,-0.12224 0.13697,-0.0436 0.26701,-0.0436 0.39747,-0.0786 0.12922,-0.0437 0.27517,-0.048 0.39746,-0.0742 0.0762,-0.0437 0.12108,0.003 0.20465,0 0.0644,0 0.13412,-0.048 0.19282,-0.0655 0.0828,-0.0437 0.1276,0.002 0.20465,0 0.11863,-0.0437 0.26661,-0.0437 0.39746,-0.0786 0.12923,-0.0437 0.25887,-0.0437 0.39747,-0.0786 0.12189,-0.0437 0.27028,-0.0873 0.38524,-0.11787 0.0828,-0.0437 0.1276,0.003 0.20465,0 0.11781,-0.0437 0.26701,-0.0437 0.39746,-0.0742 0.12923,-0.0437 0.25887,-0.0437 0.39747,-0.0786 0.066,0 0.13616,-0.0437 0.19282,-0.0655 0.0799,-0.0437 0.12108,0.003 0.20465,0 0.0644,0 0.12923,-0.0437 0.19282,-0.0655 0.0685,0 0.12923,-0.0437 0.19282,-0.0611 0.62164,-0.19209 -0.32979,0.10041 0.39747,-0.0742 0.1223,-0.0436 0.25642,-0.0829 0.38524,-0.11787 0.12923,-0.0437 0.25642,-0.0829 0.38524,-0.12224 0.17162,-0.0568 0.90186,-0.28377 0.96338,-0.30124 0.0828,-0.0437 0.14186,-0.0829 0.18059,-0.10477 0.0204,0 -0.0367,-0.0437 -0.008,-0.048 0.0534,0.002 0.14227,-0.0873 0.181,-0.10477 0.0204,0 -0.008,-0.048 -0.008,-0.048 -0.008,-0.048 -0.0546,-0.048 -0.0245,-0.0873 0.0204,0 0.14186,-0.0873 0.18141,-0.10041 0.0518,-0.0568 -0.117,-0.20083 -0.0652,-0.24448 0.0534,8.7e-4 0.14187,-0.0917 0.181,-0.10042 0.0534,-0.0567 -0.0978,-0.12224 -0.0424,-0.16153 0.0534,8.7e-4 0.14187,-0.0873 0.1806,-0.10041 0.0163,0 -0.0408,-0.14843 -0.0424,-0.16153 0,0 -0.008,-0.19646 -0.0546,-0.20956 -0.0534,-10e-4 -0.16347,0 -0.20464,0 -0.0204,0 -0.008,-0.048 -0.008,-0.048 -0.0738,0 -0.12882,-0.0437 -0.21525,-0.0437 -0.0595,0 -0.17407,0 -0.20464,0 -0.0497,-0.0437 0.0204,-0.0786 -0.0245,-0.0917 -0.0204,0 -0.51997,0.0524 -0.61112,0.0568 -0.0685,0 -0.13698,0.002 -0.20465,0 -0.0685,0 -0.16388,0 -0.20464,0 -0.0204,0 0.008,-0.0611 -0.008,-0.048 -0.10477,0 -0.7088,0.0873 -0.81401,0.0786 -0.0204,0 0.008,-0.0611 -0.008,-0.048 -0.0526,-0.002 -0.16306,0 -0.20464,0 -0.0204,0 -0.0575,-0.0437 -0.008,-0.048 0.1117,0 0.32205,0 0.21565,0.0437 -0.13861,-0.003 -0.27884,-0.003 -0.41749,0 0,0 0.008,-0.0611 -0.008,-0.048 -0.0534,-0.001 -0.16347,0 -0.20464,0 -0.0204,0 0.008,-0.0655 -0.008,-0.048 -0.0909,0 -0.29637,0.0437 -0.40798,0.0437 -0.0897,0 -0.12719,0 -0.21565,-0.0437 -0.0611,0 -0.74313,0.0611 -0.81402,0.0786 -0.0644,0 -0.13453,0.048 -0.19282,0.0655 -0.0245,0.0437 -0.79339,0.0786 -0.81402,0.0786 -0.31512,-0.0437 0.45997,-0.0873 -0.21565,-0.0437 -0.0685,0 -0.12107,-0.003 -0.20464,0 -0.27517,0.048 -0.1594,0.10477 -0.39584,0.083 -0.0204,0 0.008,-0.0611 -0.008,-0.048 -0.0909,0 -0.31594,0.0524 -0.40799,0.0437 -0.0204,0 0.008,-0.0611 -0.008,-0.048 -0.10477,0 -0.70908,0.0917 -0.81406,0.0786 -0.0204,0 0.008,-0.0611 -0.008,-0.048 -0.0534,-8.8e-4 -0.15165,0 -0.20464,0 -0.0897,0 -0.12719,0 -0.21566,-0.0437 -0.12719,-0.003 -0.51426,0.0698 -0.61112,0.0568 -0.0204,0 0.008,-0.0611 -0.008,-0.048 -0.0534,-8.7e-4 -0.15165,0 -0.20465,0 -0.0893,0 -0.14268,0 -0.21565,-0.0437 -0.0738,0 -0.16062,0 -0.21524,-0.0436 -0.0163,0 0.008,-0.0611 -0.008,-0.048 -0.0534,-8.7e-4 -0.17407,0 -0.20464,0 -0.0497,-0.0436 0.0163,-0.0698 -0.0245,-0.0873 -0.28414,-0.12224 -0.0917,0.0437 -0.41748,0 -0.0656,-0.0437 0.0245,-0.10478 -0.0326,-0.12224 -0.0575,-0.0437 -0.17121,-8.7e-4 -0.21524,-0.0437 -0.10273,-0.048 0.0367,-0.20082 -0.0652,-0.24885 -0.0469,-0.0437 -0.16061,0 -0.21565,-0.0437 -0.0163,0 -0.008,-0.048 -0.008,-0.048 -0.008,-0.0524 -0.0204,-0.23575 -0.0652,-0.24884 -0.0204,0 -0.16347,0 -0.20464,0 -0.0204,0 -0.008,-0.048 -0.008,-0.048 -0.008,-0.048 -0.003,-0.19645 -0.0546,-0.20955 -0.0575,-0.0437 -0.17163,-0.002 -0.21525,-0.0437 -0.0416,-0.0437 -0.008,-0.0567 -0.0245,-0.0829 -0.0285,-0.096 -0.0497,-0.19209 -0.0746,-0.28814 0,0 -0.008,-0.048 -0.008,-0.048 0,0 0.0428,-0.048 -0.008,-0.048 -0.0558,0.002 -0.14758,0.048 -0.19283,0.0655 -0.0558,0.002 -0.008,-0.048 -0.008,-0.048 -0.008,-0.048 -0.008,-0.0568 -0.0204,-0.0829 -0.0367,-0.1397 -0.0722,-0.27504 -0.11048,-0.41911 -0.008,-0.048 -0.0844,-0.17026 -0.0546,-0.20955 0.0204,0 0.14186,-0.0873 0.18059,-0.10041 0.051,-0.0568 -0.0546,-0.048 -0.0245,-0.0917 0.0428,-0.048 0.14105,-0.0917 0.18018,-0.12661 0.0163,0 -0.0326,-0.0437 -0.008,-0.048 0.0428,-0.048 0.14105,-0.0917 0.18019,-0.12661 0.0163,0 -0.0367,-0.0437 -0.008,-0.048 0.0534,8.7e-4 0.14187,-0.0917 0.181,-0.10478 0.0636,-0.0655 -0.0991,-0.0655 -0.0326,-0.12224 0.0669,-0.0698 0.29189,-0.14407 0.36526,-0.20082 0.0461,-0.0524 -0.0681,-0.0437 -0.0245,-0.0917 0.0526,10e-4 0.14227,-0.0873 0.181,-0.10041 0.051,-0.0567 -0.0571,-0.0437 -0.0245,-0.0873 0.0542,-0.0568 0.10232,-0.10041 0.18059,-0.12661 -0.008,-0.048 -0.0546,-0.048 -0.0245,-0.083 0.0204,0 0.14187,-0.0917 0.181,-0.10914 0.0204,0 -0.0285,-0.10041 -0.0326,-0.12224 -0.008,-0.048 -0.0367,-0.24885 -0.0656,-0.24885 -0.0534,-10e-4 -0.16387,0 -0.20464,0 -0.0204,0 0.008,-0.0655 -0.008,-0.048 -0.0163,0 -0.55789,0.0524 -0.61108,0.0567 -0.11537,0.0437 -0.26295,0.0786 -0.38524,0.11788 -0.13657,0.0437 -0.25887,0.0437 -0.39747,0.0742 -0.17489,0.0567 -0.40562,0.12224 -0.57798,0.18336 -0.0856,0.0436 -0.1276,-0.002 -0.20465,0 -0.11862,0.0436 -0.27557,0.048 -0.39746,0.0786 -0.0758,0.0437 -0.12108,-0.003 -0.20465,0 -0.11537,0.0437 -0.27028,0.0873 -0.38524,0.11787 -0.0828,0.0437 -0.13982,-8.7e-4 -0.20464,0 -0.12923,0.0437 -0.26253,0.0786 -0.38524,0.12225 -0.0856,0.0437 -0.12107,0 -0.20464,0 -0.11537,0.0437 -0.27028,0.0917 -0.38524,0.12224 -0.0803,0.0436 -0.13698,0.002 -0.20465,0 -0.12923,0.0436 -0.26131,0.0829 -0.38524,0.12224 -0.94389,0.24448 0.008,-0.002 -0.60068,0.10041 -0.1541,0.0524 -0.42389,0.13097 -0.57802,0.18336 -0.0828,0.0437 -0.12108,-0.003 -0.20465,0 -0.055,8.7e-4 -0.72477,0.23138 -0.77092,0.24011 -0.0697,0 -0.66787,0.20956 -0.7708,0.24012 -0.31879,0.1397 -1.28792,0.49333 -0.94198,0.38418 0.40684,-0.12224 0.98405,-0.48765 1.13468,-0.44486 0.14961,0.0436 -0.75727,0.2925 -1.13468,0.44486 z"
       id="path3983-2"
       inkscape:connector-curvature="0" />
    <path
       sodipodi:type="arc"
       style="fill:#c8914b;fill-opacity:1;fill-rule:nonzero;stroke:#000000;stroke-width:0;stroke-linecap:round;stroke-linejoin:round;stroke-miterlimit:4;stroke-opacity:1;stroke-dasharray:none"
       id="path4016"
       sodipodi:cx="285.36316"
       sodipodi:cy="745.08118"
       sodipodi:rx="3.1419296"
       sodipodi:ry="3.0383494"
       d="m 288.50509,745.08118 a 3.1419296,3.0383494 0 1 1 -0.0217,-0.35684"
       transform="matrix(-3.7342165,0,0,3.4907076,1255.8386,-1892.0086)"
       sodipodi:start="0"
       sodipodi:end="6.1654701"
       sodipodi:open="true" />
    <path
       sodipodi:type="arc"
       style="fill:#c8914b;fill-opacity:1;fill-rule:nonzero;stroke:#000000;stroke-width:0;stroke-linecap:round;stroke-linejoin:round;stroke-miterlimit:4;stroke-opacity:1;stroke-dasharray:none"
       id="path4018"
       sodipodi:cx="289.64447"
       sodipodi:cy="749.05176"
       sodipodi:rx="3.4871964"
       sodipodi:ry="3.6943567"
       d="m 293.13167,749.05176 a 3.4871964,3.6943567 0 1 1 -0.0241,-0.43388"
       transform="matrix(-0.946252,-1.8276129,-2.6592593,1.7934628,2432.0348,-71.65264)"
       sodipodi:start="0"
       sodipodi:end="6.1654701"
       sodipodi:open="true" />
    <path
       style="fill:#000000;fill-opacity:1;fill-rule:nonzero;stroke:#000000;stroke-width:0;stroke-linecap:round;stroke-linejoin:round;stroke-miterlimit:4;stroke-opacity:1;stroke-dasharray:none"
       d="m 417.56681,1013.2645 c 0.0245,-1.0473 -2.6879,-12.2319 -4.11662,-16.97438 -2.0312,-6.74244 -3.49258,-10.17347 -4.22148,-9.91021 -0.24133,0.0873 -1.14136,1.58519 -2.00034,3.32887 -3.16865,6.43246 -5.52378,10.38742 -7.69013,12.91422 l -2.22198,2.5915 1.13578,2.6291 c 0.62461,1.4455 1.25265,3.3398 1.39558,4.2094 l 0.25968,1.5809 8.72876,-0.1441 c 4.8008,-0.079 8.72961,-0.179 8.73059,-0.2227 z"
       id="path4032"
       inkscape:connector-curvature="0" />
    <path
       style="fill:none;stroke:#000000;stroke-width:4.08653021px;stroke-linecap:butt;stroke-linejoin:miter;stroke-opacity:1"
       d="m 346.05805,989.869 c 0.49808,0.56842 0.99615,1.13683 1.49419,1.70525 0.12475,0 0.26213,-0.0655 0.37383,0 0.15735,0.0917 0.29473,0.24448 0.37382,0.42784 0.0559,0.12661 -0.0558,0.29687 0,0.42785 0.0787,0.17899 0.29474,0.24884 0.37341,0.42784 0.0558,0.1266 -0.0554,0.30123 0,0.42784 0.22422,0.51166 0.89657,0.76749 1.12066,1.27916 0.0559,0.1266 -0.0559,0.30123 0,0.42784 0.0787,0.17899 0.29474,0.24885 0.37382,0.42784 0.0559,0.12661 0,0.28377 0,0.42784 0,0.28378 -0.0787,0.58326 0,0.85263 0.11129,0.37982 0.5896,0.49333 0.74708,0.85263 0.11129,0.25321 -0.11129,0.59854 0,0.85306 0.0787,0.179 0.29474,0.24448 0.37382,0.42784 0.11741,0.26631 -0.1174,1.43724 0,1.70524 0.0787,0.179 0.29474,0.2445 0.37342,0.4279 0.0481,0.1091 0,2.2557 0,2.5578 0,1.8476 0,3.6952 0,5.5423 0,1.5634 0,3.1268 0,4.6901 0,0.4654 0.0807,1.8559 0,2.1314 -0.0876,0.3012 -0.28536,0.5514 -0.37342,0.8531 -0.0742,0.2532 0,2.1448 0,2.5578 0,0.1441 0.0555,0.3013 0,0.4279 -0.46163,1.0534 -0.37382,-0.1485 -0.37382,0.8526"
       id="path4034"
       inkscape:connector-curvature="0" />
    <path
       style="fill:#000000;fill-opacity:1;fill-rule:nonzero;stroke:#000000;stroke-width:0;stroke-linecap:round;stroke-linejoin:round;stroke-miterlimit:4;stroke-opacity:1;stroke-dasharray:none"
       d="m 341.98822,1017.6521 c 3.73335,-0.262 6.92728,-0.6348 7.09747,-0.8295 0.1704,-0.1965 0.30982,-4.0309 0.30982,-8.525 0,-6.7533 -0.10843,-8.42933 -0.62404,-9.66265 -0.34325,-0.82076 -0.72612,-1.87596 -0.85095,-2.34483 -0.12474,-0.46888 -0.56897,-1.32064 -0.98698,-1.89211 l -0.75996,-1.03948 -0.8845,1.25252 c -0.48654,0.68892 -1.66953,2.85476 -2.629,4.81279 -2.15717,4.40236 -4.08193,6.67086 -6.2241,7.33576 -0.88498,0.275 -1.82411,0.5697 -2.08697,0.6557 -0.26253,0.087 -1.04732,1.5119 -1.74323,3.1691 -1.31911,3.1416 -1.33504,3.6825 -0.19119,6.4896 0.38075,0.9348 0.71189,1.1605 1.63178,1.1129 0.63476,-0.044 4.20871,-0.2751 7.94214,-0.5348 l 0,0 z"
       id="path4036"
       inkscape:connector-curvature="0" />
    <path
       style="fill:none;stroke:#000000;stroke-width:4.08653021px;stroke-linecap:butt;stroke-linejoin:miter;stroke-opacity:1"
       d="m 548.52395,1004.3645 c 0.59894,3.5943 2.59977,0.2052 3.73551,0.8527 1.51103,0.8626 0.2397,1.979 0.74711,2.5583 0.17571,0.2008 0.57101,-0.2008 0.74708,0 0.35222,0.4016 -0.22258,1.1966 0,1.7052 0.49877,1.1386 0.99546,0.5671 1.49423,1.7053 0.1113,0.2532 -0.11129,0.5985 0,0.8526 0.15736,0.358 0.58964,0.4934 0.74712,0.8531 0.22258,0.5082 -0.22258,1.1966 0,1.7052 0.15736,0.358 0.5896,0.4929 0.74708,0.8527 0.11129,0.2532 0,0.5684 0,0.8526 0.24908,0.2838 0.5896,0.4933 0.74712,0.8526 0.11129,0.2532 0,0.5684 0,0.8526 0,0.2838 0,0.5685 0,0.8527 0,1.7057 0,3.4109 0,5.1162"
       id="path4038"
       inkscape:connector-curvature="0" />
    <path
       style="fill:none;stroke:#000000;stroke-width:4.08653021px;stroke-linecap:butt;stroke-linejoin:miter;stroke-opacity:1"
       d="m 624.72877,1001.8067 c 0.59898,3.5938 2.59977,0.2051 3.73555,0.8526 0.3991,0.227 1.84804,2.1091 2.24131,2.5579 0.39339,0.4492 2.04184,2.1029 2.24131,2.5583 0.11129,0.2532 -0.11129,0.5985 0,0.8526 0.15736,0.358 0.58964,0.4933 0.74716,0.8526 0.29881,0.6824 -0.29882,1.876 0,2.5579 0.15735,0.358 0.58959,0.4933 0.74707,0.8531 0.23563,0.5378 -0.23562,3.7253 0,4.2631 0.15736,0.358 0.5896,0.4933 0.74712,0.8526 0.22707,0.5178 -0.22666,4.5985 0,5.1162 0.15736,0.358 0.6357,0.4715 0.74712,0.8527 0.23603,0.8089 0,1.7052 0,2.5583"
       id="path4040"
       inkscape:connector-curvature="0" />
    <path
       style="fill:#000000;fill-opacity:1;fill-rule:nonzero;stroke:#000000;stroke-width:0;stroke-linecap:round;stroke-linejoin:round;stroke-miterlimit:4;stroke-opacity:1;stroke-dasharray:none"
       d="m 632.54849,1022.0056 c -0.0285,-4.4269 -1.96704,-12.9693 -3.33237,-14.6911 -0.75148,-0.9478 -2.10613,-1.7232 -3.0104,-1.7232 -1.5085,0 -1.6787,0.5213 -2.06276,6.3177 -0.23032,3.4742 -0.80895,7.1493 -1.286,8.1669 -1.56137,3.3298 -0.49428,4.2745 4.82746,4.2745 4.82897,0 4.87948,-0.044 4.86407,-2.3448 z"
       id="path4042"
       inkscape:connector-curvature="0" />
    <path
       style="fill:#000000;fill-opacity:1;fill-rule:nonzero;stroke:#000000;stroke-width:0;stroke-linecap:round;stroke-linejoin:round;stroke-miterlimit:4;stroke-opacity:1;stroke-dasharray:none"
       d="m 552.43691,1021.5821 c 2.96258,-1.0849 2.99418,-2.1305 0.26172,-8.6516 l -2.10564,-5.0249 -1.22584,6.1954 c -1.84783,9.3383 -1.86814,9.289 3.07001,7.4811 z"
       id="path4044"
       inkscape:connector-curvature="0" />
    <path
       sodipodi:type="arc"
       style="fill:#c8914b;fill-opacity:1;fill-rule:nonzero;stroke:#000000;stroke-width:0;stroke-linecap:round;stroke-linejoin:round;stroke-miterlimit:4;stroke-opacity:1;stroke-dasharray:none"
       id="path4018-3"
       sodipodi:cx="289.64447"
       sodipodi:cy="749.05176"
       sodipodi:rx="3.4871964"
       sodipodi:ry="3.6943567"
       d="m 293.13167,749.05176 a 3.4871964,3.6943567 0 1 1 -0.0241,-0.43388"
       transform="matrix(-1.2726053,-1.5481988,-2.2526992,2.412011,2235.0713,-626.36145)"
       sodipodi:start="0"
       sodipodi:end="6.1654701"
       sodipodi:open="true" />
  </g>
</svg>
